<?xml version="1.0" standalone="no"?>
<!DOCTYPE svg PUBLIC "-//W3C//DTD SVG 20010904//EN"
 "http://www.w3.org/TR/2001/REC-SVG-20010904/DTD/svg10.dtd">
<svg version="1.0" xmlns="http://www.w3.org/2000/svg"
 width="1280.000000pt" height="766.000000pt" viewBox="0 0 1280.000000 766.000000"
 preserveAspectRatio="xMidYMid meet">
<metadata>
Created by potrace 1.15, written by Peter Selinger 2001-2017
</metadata>
<g transform="translate(0.000000,766.000000) scale(0.100000,-0.100000)"
fill="#000000" stroke="none">
<path d="M7835 7641 c-46 -21 -91 -69 -112 -121 -22 -51 -50 -77 -104 -95 -95
-32 -44 -51 75 -29 91 16 166 41 166 55 0 5 -4 9 -9 9 -16 0 -22 36 -11 66 9
22 8 29 -5 36 -24 14 -18 25 25 42 114 46 182 2 216 -139 19 -78 39 -110 54
-85 18 30 -17 150 -60 202 -59 72 -155 96 -235 59z"/>
<path d="M7740 7379 c-41 -10 -115 -22 -165 -25 -104 -7 -135 -22 -135 -63 0
-57 82 -120 158 -121 34 0 40 8 20 28 -6 6 -9 15 -5 18 15 15 37 -9 57 -63 20
-54 24 -143 9 -217 -11 -52 113 -81 176 -41 l30 19 -19 -22 c-10 -12 -37 -31
-60 -42 -23 -11 -59 -38 -81 -61 -22 -23 -55 -48 -72 -55 -27 -12 -35 -23 -49
-72 -10 -32 -18 -94 -18 -142 -1 -96 13 -128 68 -158 38 -20 147 -22 254 -3
70 13 72 14 72 42 0 20 9 39 26 54 34 32 44 31 44 0 0 -18 -7 -28 -25 -35 -14
-5 -25 -12 -25 -15 0 -3 11 -10 25 -15 31 -12 31 -21 4 -46 -16 -14 -23 -15
-26 -6 -7 18 -33 14 -33 -5 0 -35 16 -46 54 -40 43 7 47 2 70 -103 20 -90 31
-112 46 -90 13 20 12 39 -5 145 -18 106 -18 105 -6 105 5 0 12 -11 15 -25 4
-14 13 -25 21 -25 38 0 49 -257 13 -297 -17 -19 -17 -21 7 -53 31 -42 32 -54
3 -39 -19 10 -25 8 -47 -20 -28 -34 -55 -40 -65 -15 -7 19 18 69 39 77 21 9
19 27 -2 27 -10 0 -49 -16 -87 -35 -39 -19 -81 -35 -95 -35 -14 0 -35 -7 -46
-15 -14 -12 -34 -14 -82 -9 -114 12 -65 -27 52 -41 83 -10 96 -15 104 -38 11
-29 -4 -67 -37 -94 -39 -32 -54 -28 -84 20 -31 48 -68 86 -68 69 0 -6 9 -30
21 -52 24 -46 20 -83 -11 -100 -28 -15 -71 10 -96 55 l-19 37 30 24 c19 15 26
27 20 33 -11 11 -32 2 -84 -37 -49 -37 -36 -12 24 48 52 52 63 76 27 63 -32
-11 -84 -56 -104 -89 -23 -40 -113 -98 -354 -232 -239 -132 -295 -160 -524
-260 -372 -161 -675 -276 -1063 -401 -244 -79 -315 -91 -592 -100 -240 -9
-240 -9 -350 -46 -134 -44 -205 -61 -338 -80 -136 -20 -492 -32 -501 -17 -4 7
14 17 51 27 294 82 528 161 1158 390 160 58 1012 391 1183 462 233 96 240 98
276 84 17 -6 65 -14 107 -18 l76 -6 22 -76 c25 -85 56 -141 77 -141 20 0 18 8
-23 132 -38 111 -72 164 -98 154 -7 -2 -30 6 -50 20 -20 13 -40 24 -45 24 -15
0 -12 -22 7 -42 20 -23 12 -32 -22 -24 -36 9 -41 31 -22 87 9 25 17 58 17 73
0 45 46 60 180 61 l115 0 15 -44 15 -44 -29 -21 c-55 -39 -101 -84 -94 -92 4
-4 26 1 48 11 38 17 41 17 60 0 19 -17 24 -16 137 15 248 68 302 89 353 136
26 24 50 44 54 44 3 0 6 -15 6 -34 0 -19 4 -37 10 -41 25 -15 75 119 109 288
12 60 31 132 41 160 25 65 26 125 4 134 -10 4 -20 -1 -27 -12 -8 -15 -12 -11
-28 31 -11 27 -19 50 -19 50 0 1 9 4 20 7 24 6 28 52 5 61 -21 8 -21 126 0
166 9 17 11 31 6 35 -15 9 -40 -34 -62 -107 -11 -37 -31 -81 -45 -98 -27 -32
-68 -40 -77 -16 -19 48 73 200 149 247 19 11 57 27 85 34 65 17 105 43 90 58
-7 7 -32 4 -85 -11 -41 -12 -84 -22 -96 -22 -13 0 -37 -16 -56 -37 -39 -43
-116 -196 -132 -263 -6 -25 -16 -67 -22 -95 -6 -27 -20 -64 -31 -81 -10 -17
-19 -38 -19 -47 0 -9 -19 -37 -42 -64 -23 -26 -57 -69 -76 -95 -21 -30 -65
-68 -118 -103 -46 -31 -84 -59 -84 -64 0 -4 12 -13 26 -20 22 -10 25 -16 19
-41 -6 -26 -4 -30 15 -30 19 0 22 -4 18 -32 -3 -18 -8 -41 -13 -51 -6 -14 -4
-16 11 -11 27 10 44 34 44 63 1 14 7 43 14 64 l14 37 -29 0 c-22 0 -29 5 -29
19 0 24 16 37 60 48 26 7 43 21 68 58 73 111 102 135 102 85 0 -10 8 -21 18
-25 16 -6 16 -7 -2 -21 -11 -8 -28 -14 -38 -14 -9 0 -22 -9 -28 -20 -6 -11
-17 -20 -25 -20 -24 0 -28 -46 -10 -94 18 -46 14 -78 -13 -108 -8 -10 -23 -18
-32 -18 -11 0 -20 -10 -23 -28 -6 -31 -52 -58 -117 -68 l-40 -7 0 42 c0 97
-75 192 -117 150 -9 -9 -26 -9 -70 0 -62 12 -115 3 -160 -26 -26 -17 -73 -91
-73 -115 0 -55 -97 -106 -520 -276 -629 -252 -1051 -413 -1475 -562 -137 -48
-275 -98 -305 -110 -185 -75 -533 -137 -715 -128 -44 2 -118 11 -165 21 -47 9
-139 26 -205 38 -149 26 -182 39 -191 74 -10 38 11 120 51 204 19 40 35 85 35
101 0 41 -31 48 -78 17 -31 -20 -43 -40 -76 -126 -22 -55 -42 -101 -44 -101
-2 0 -22 19 -44 41 -40 41 -41 41 -99 37 l-59 -4 2 77 c2 93 -15 129 -62 129
-45 0 -53 -26 -41 -140 5 -52 8 -97 6 -99 -2 -1 -44 22 -93 52 -122 76 -226
127 -258 127 -14 0 -88 29 -163 64 -150 71 -214 90 -343 105 -48 6 -154 26
-235 45 -248 59 -395 69 -410 29 -5 -13 -16 -14 -62 -9 -31 4 -66 14 -79 22
-36 24 -62 93 -65 173 -2 39 -7 74 -11 78 -16 17 -81 -93 -136 -230 -28 -71
-41 -79 -99 -61 -60 18 -90 18 -148 -2 -92 -31 -144 -86 -153 -163 l-5 -45
-67 63 c-37 35 -88 91 -112 126 -79 110 -99 98 -92 -55 6 -136 28 -198 96
-265 37 -36 50 -57 50 -78 0 -15 7 -41 15 -57 8 -15 19 -67 24 -114 6 -47 15
-104 21 -127 13 -47 12 -49 -42 -69 -61 -23 -82 -57 -86 -144 -6 -112 40 -259
105 -336 21 -26 32 -30 73 -30 37 0 55 6 79 26 17 14 35 23 40 19 13 -8 44
-113 72 -245 14 -70 34 -128 59 -176 48 -90 75 -206 67 -284 -7 -67 4 -84 64
-95 28 -5 39 -14 50 -38 18 -40 60 -56 154 -56 87 -1 151 16 238 63 38 20 75
36 82 36 39 0 85 126 66 181 -13 38 -3 49 41 49 17 0 31 8 38 20 9 17 7 22
-11 28 -21 8 -21 9 9 30 47 34 114 62 149 62 27 0 32 -4 38 -30 4 -17 26 -79
51 -138 57 -141 59 -193 9 -288 -29 -55 -35 -76 -35 -127 0 -145 69 -277 145
-277 8 0 23 -8 33 -18 16 -16 17 -26 9 -79 -16 -93 16 -202 102 -346 33 -57
34 -59 22 -110 -7 -29 -28 -143 -46 -255 -29 -172 -40 -215 -72 -285 l-38 -82
0 -135 c0 -170 8 -188 118 -289 97 -90 248 -241 367 -368 110 -117 155 -137
310 -136 137 0 249 18 275 44 16 16 20 32 19 87 0 81 -36 156 -99 207 -79 65
-154 81 -213 45 -30 -18 -35 -19 -48 -5 -9 8 -21 15 -27 15 -20 1 -87 56 -189
157 l-98 96 -6 101 c-11 174 31 285 175 464 115 142 151 196 167 248 7 23 17
52 23 62 17 32 1 33 -43 3 -58 -41 -138 -112 -131 -119 3 -3 25 9 49 26 67 48
76 38 21 -19 -28 -29 -42 -49 -32 -46 31 11 18 -10 -66 -107 -45 -52 -98 -121
-116 -153 -19 -32 -50 -82 -69 -111 l-35 -53 9 -164 9 -164 70 -73 c102 -106
176 -169 207 -175 15 -3 33 -12 40 -20 10 -13 8 -19 -11 -34 -21 -17 -21 -20
-7 -35 9 -8 16 -26 16 -38 0 -25 33 -61 48 -52 5 3 12 19 16 37 9 47 42 35
100 -38 27 -35 52 -61 54 -58 10 9 -23 79 -57 123 -52 66 -54 71 -41 87 16 19
83 19 119 1 36 -19 90 -80 107 -122 18 -43 18 -108 0 -124 -36 -29 -312 -52
-405 -34 -23 5 -46 25 -88 78 -32 39 -140 155 -240 257 -101 102 -183 190
-183 196 0 5 13 22 30 38 40 39 29 44 -20 10 -52 -36 -60 -29 -76 72 -22 135
-19 171 22 239 46 76 64 126 64 180 0 76 30 262 56 347 14 45 28 92 31 105 4
17 -15 64 -66 165 -73 144 -100 230 -87 280 6 24 11 27 45 27 54 0 63 -15 46
-75 -8 -26 -14 -64 -14 -84 1 -22 3 -28 6 -16 3 11 14 43 25 72 24 66 40 72
227 75 l145 3 8 -40 c13 -66 39 -125 54 -125 12 0 13 14 8 80 -9 102 1 117
109 171 164 83 285 184 394 330 36 49 70 89 75 89 11 0 414 -104 502 -129 38
-12 74 -25 79 -30 14 -14 -119 -23 -368 -25 -245 -1 -256 -3 -294 -52 -57 -72
8 -193 111 -208 24 -3 160 -11 303 -16 143 -6 299 -13 347 -16 l88 -7 -37 -69
c-39 -74 -217 -273 -234 -262 -6 3 2 22 17 41 l27 36 -32 -6 c-29 -6 -32 -5
-26 13 12 38 -15 20 -62 -40 -25 -33 -48 -59 -50 -57 -1 2 11 29 28 60 42 79
31 93 -19 25 -70 -95 -81 -91 -25 9 45 81 28 78 -40 -6 -66 -81 -88 -90 -48
-19 48 84 41 169 -18 222 -21 19 -21 19 -21 0 1 -10 7 -30 15 -44 31 -54 7
-176 -37 -188 -27 -7 -37 -60 -48 -248 -24 -408 2 -1178 46 -1419 9 -44 19
-111 23 -149 5 -54 12 -72 30 -87 29 -24 39 -18 47 29 8 46 20 62 48 63 13 1
6 6 -19 13 -51 16 -51 34 -1 62 l40 23 -39 3 c-48 4 -69 31 -89 113 -27 107
-36 215 -43 485 -5 239 -2 349 24 879 l6 134 89 -7 c49 -4 100 -11 114 -16 34
-13 119 -12 169 2 22 6 130 14 240 18 156 6 225 13 316 33 200 43 463 140 529
195 40 33 19 34 -62 3 -129 -50 -431 -141 -467 -141 -6 0 -11 7 -11 16 0 15
-20 7 -112 -50 -28 -17 -33 2 -8 29 38 41 16 40 -47 -2 -115 -78 -112 -68 21
75 58 61 114 125 126 142 l21 30 127 0 c70 0 144 5 165 11 31 8 42 8 55 -4 48
-41 261 -82 761 -147 128 -16 236 -32 240 -34 4 -3 16 -27 26 -53 25 -67 79
-174 136 -268 55 -92 84 -162 105 -252 13 -56 13 -75 -1 -165 -40 -268 -177
-651 -284 -793 -20 -27 -50 -72 -66 -100 -15 -27 -63 -86 -106 -130 -43 -44
-100 -109 -126 -145 -40 -54 -56 -68 -97 -81 -33 -11 -43 -18 -32 -22 9 -4 26
-22 37 -41 28 -48 69 -60 193 -54 76 4 118 12 169 31 140 54 204 120 231 239
9 39 27 90 40 113 23 38 32 44 158 92 138 53 171 59 415 78 120 9 161 26 48
20 -49 -3 -108 -7 -130 -10 l-40 -5 35 14 c180 70 242 145 218 262 -13 63 -5
79 47 88 19 4 35 11 35 16 0 5 16 26 36 45 l36 37 -5 101 c-3 56 -11 149 -17
207 -30 266 26 746 91 780 35 19 44 7 45 -61 3 -117 94 -304 185 -383 47 -40
106 -58 173 -54 50 3 72 21 37 31 -10 2 -27 17 -37 33 -17 24 -19 52 -21 212
-1 102 -4 186 -6 189 -3 2 -13 -15 -22 -39 -13 -31 -20 -79 -23 -169 -4 -112
-2 -131 17 -174 11 -26 21 -52 21 -56 0 -5 -22 2 -48 15 -102 52 -208 208
-232 343 -13 77 -4 98 48 113 37 10 300 39 306 33 1 -2 -3 -31 -11 -65 -18
-88 -21 -212 -4 -232 32 -38 49 -4 67 129 9 64 41 172 55 181 19 11 29 -11 54
-111 25 -100 86 -236 200 -440 41 -74 74 -118 128 -171 107 -103 220 -190 301
-231 39 -19 74 -40 77 -46 4 -5 24 -11 44 -14 59 -6 79 -22 30 -24 -102 -3
-81 -16 35 -22 114 -5 211 -19 250 -34 10 -4 3 -9 -20 -14 -46 -10 218 -1 340
12 342 37 602 155 830 378 96 95 141 156 138 190 -1 14 21 80 50 146 77 180
133 395 104 395 -20 0 -42 -57 -67 -169 -54 -244 -135 -399 -290 -557 -112
-114 -186 -167 -319 -230 -315 -149 -694 -146 -1001 9 -166 83 -332 230 -430
380 -99 153 -241 457 -260 558 l-7 37 49 6 c72 9 315 24 511 32 152 6 172 5
172 -8 0 -9 -78 -74 -172 -146 -95 -71 -184 -141 -197 -156 -14 -14 -29 -26
-35 -26 -11 0 -51 90 -82 185 -26 80 -54 101 -55 43 0 -32 -1 -31 -24 20 -28
61 -45 67 -45 16 0 -103 172 -470 241 -512 32 -20 31 -11 -2 40 -17 26 -29 52
-27 59 2 6 17 -8 32 -32 60 -90 192 -223 305 -306 3 -2 -4 -9 -14 -17 -18 -13
-18 -14 7 -37 29 -26 54 -40 172 -93 72 -33 155 -49 142 -27 -3 5 -60 32 -126
61 -110 49 -162 80 -131 80 6 0 69 -22 139 -49 70 -27 151 -56 179 -66 29 -9
55 -21 58 -26 8 -13 372 -12 380 1 4 6 -41 10 -127 11 l-133 1 92 14 c274 40
463 118 617 255 114 101 232 300 281 474 30 103 44 225 27 225 -19 0 -39 -42
-46 -92 -8 -56 -20 -67 -37 -36 -6 13 -36 51 -66 86 l-55 62 200 0 200 0 6
-30 c3 -17 10 -121 16 -233 16 -314 33 -445 76 -596 23 -78 138 -338 184 -413
34 -56 36 -65 24 -79 -13 -15 -12 -17 10 -23 14 -3 32 -20 41 -36 20 -39 19
-43 -10 -36 -14 4 -35 2 -46 -5 -11 -6 -76 -15 -143 -19 -67 -5 -135 -14 -151
-20 -17 -7 -59 -16 -95 -21 -143 -21 -281 -71 -258 -95 4 -4 25 0 45 10 58 26
143 46 194 46 26 0 82 7 125 16 104 22 377 14 450 -13 46 -18 75 -45 62 -59
-16 -16 -103 -16 -170 1 -51 12 -89 15 -131 10 -111 -12 -257 -68 -235 -90 3
-3 39 7 81 22 74 27 77 27 106 10 16 -9 63 -22 105 -28 42 -6 87 -19 98 -29
21 -16 21 -18 5 -58 -25 -63 -10 -70 111 -47 72 13 117 16 177 10 129 -11 213
-10 516 8 518 32 642 64 850 222 103 77 190 115 268 115 20 0 43 4 51 10 28
17 -20 24 -79 11 -95 -22 -111 -24 -111 -13 0 6 26 44 58 84 198 247 329 541
416 928 46 208 58 315 65 575 l6 250 120 11 c66 6 140 15 164 19 64 11 49 -15
-22 -38 -67 -22 -67 -42 -1 -32 91 13 115 -23 37 -56 -27 -11 -59 -25 -72 -30
-34 -14 -10 -29 46 -29 110 0 21 -44 -125 -62 -53 -6 -101 -15 -105 -18 -5 -4
7 -17 26 -29 94 -58 231 6 288 134 18 41 46 221 36 231 -3 3 -18 -4 -34 -16
-22 -15 -64 -26 -159 -40 -71 -11 -144 -20 -162 -20 -51 0 -57 25 -54 237 1
100 -2 224 -8 275 -8 77 -7 95 5 108 24 27 33 106 55 490 29 496 34 560 51
571 13 8 105 3 137 -7 13 -4 13 -31 -9 -584 -12 -320 -37 -797 -45 -872 -13
-121 -24 -50 -24 159 0 119 -2 214 -5 212 -2 -3 -9 -93 -15 -201 -10 -197 -20
-255 -41 -242 -20 12 2 299 52 674 37 279 49 394 48 465 -1 59 -5 41 -24 -110
-13 -99 -40 -306 -60 -460 -39 -306 -54 -543 -36 -587 l11 -28 112 0 c107 1
192 10 205 23 14 15 -25 38 -104 64 l-85 28 6 80 c13 164 33 557 56 1099 6
136 8 261 5 277 -8 37 -32 43 -154 44 -67 0 -96 -4 -98 -12 -8 -23 -54 -14
-83 16 -41 40 -46 72 -27 171 40 207 5 223 -93 46 -23 -42 -47 -76 -54 -76 -7
0 -26 16 -43 35 -30 34 -34 35 -102 35 l-71 0 0 38 c0 20 5 90 11 156 5 65 7
121 4 125 -11 10 -62 -58 -105 -141 -48 -91 -85 -138 -110 -138 -24 0 -30 19
-30 100 0 83 -9 132 -24 128 -21 -7 -86 -149 -86 -190 0 -57 -47 -115 -99
-122 -9 -2 -17 -14 -19 -27 -6 -48 -11 -53 -32 -34 -27 24 -25 47 5 75 33 31
53 90 59 183 l6 78 -28 -19 c-15 -11 -38 -32 -52 -47 -44 -48 -72 -57 -141
-46 -82 14 -86 21 -12 21 91 0 134 42 103 100 -15 29 -68 39 -247 46 l-161 7
-26 -51 c-25 -49 -34 -101 -19 -115 3 -4 18 0 32 10 26 17 104 24 117 10 14
-13 -18 -27 -64 -27 l-42 0 6 -82 6 -83 -36 -45 c-38 -48 -45 -74 -21 -84 33
-12 99 36 107 79 2 12 21 29 48 43 61 30 70 44 59 94 -6 22 -8 43 -5 45 9 9
162 -18 196 -35 53 -26 46 -46 -19 -54 -137 -16 -359 -182 -386 -288 -9 -34
-24 -50 -46 -50 -38 0 -18 62 27 83 62 30 32 57 -62 57 -31 0 -33 2 -28 28 3
16 1 47 -5 70 -9 31 -9 47 -1 63 19 35 5 45 -23 17 -23 -23 -27 -35 -27 -87 0
-33 -5 -63 -11 -66 -23 -15 -79 62 -79 109 0 18 -9 30 -31 42 -48 24 -22 41
31 20 50 -20 50 -20 50 3 0 23 -19 31 -75 31 -67 0 -95 14 -95 49 0 34 -13 46
-60 58 -33 9 -31 10 44 20 43 6 83 16 89 22 14 14 -3 50 -49 101 l-37 40 -146
-4 c-80 -2 -182 -5 -226 -5 l-81 -1 -27 -55 c-15 -31 -27 -64 -27 -75 0 -23
33 -34 85 -28 39 4 42 2 19 -23 -8 -9 -19 -43 -23 -75 -7 -48 -14 -63 -44 -91
-20 -18 -44 -33 -52 -33 -20 0 -19 34 1 50 23 20 13 62 -18 80 -39 21 -108 -3
-122 -42 -15 -42 3 -81 42 -93 37 -11 40 -27 12 -62 -24 -31 -25 -43 -5 -43
16 0 20 -12 8 -23 -3 -4 -14 0 -24 9 -26 24 -72 15 -79 -16 -3 -14 -16 -30
-27 -36 -12 -5 -31 -21 -42 -35 -25 -31 -36 -20 -16 17 8 16 15 45 15 64 1 19
5 54 9 78 5 23 6 42 4 42 -2 0 -17 -7 -33 -15 -33 -17 -73 -7 -84 20 -6 16 -8
16 -31 1 -30 -19 -35 -20 -35 -3 0 7 14 26 30 42 45 43 40 60 -10 35 -33 -17
-43 -18 -59 -8 -27 17 -41 51 -41 104 0 37 5 50 29 72 35 32 47 86 29 122 -22
40 -82 52 -278 53 -199 2 -268 -10 -300 -50 -30 -38 -26 -71 10 -91 30 -16 31
-19 24 -67 -3 -27 -8 -53 -10 -56 -2 -3 -26 -4 -54 -1 -95 9 -121 -56 -52
-130 l38 -40 80 49 79 49 3 62 c2 34 7 62 12 62 6 0 10 -8 10 -19 0 -10 13
-44 29 -76 17 -33 28 -62 25 -67 -3 -4 -17 -8 -31 -8 -14 0 -54 -16 -89 -35
-64 -36 -110 -44 -143 -23 -15 9 -53 9 -168 0 -81 -7 -189 -12 -238 -12 -57 0
-95 -4 -103 -12 -6 -6 -15 -8 -19 -4 -5 4 -8 76 -8 159 1 135 4 159 24 211 21
54 23 70 18 165 -7 131 -22 198 -48 206 -44 14 -6 83 84 154 75 59 93 89 107
174 15 83 10 301 -7 318 -8 8 -13 6 -18 -10 -3 -12 -11 -21 -16 -21 -12 0 -12
32 1 65 9 24 11 25 26 10 25 -24 36 -14 39 35 1 25 6 63 10 86 5 30 0 65 -19
140 -32 119 -48 136 -191 210 l-96 49 -49 -54 c-73 -80 -94 -145 -34 -107 14
10 28 15 31 13 9 -9 16 -154 9 -191 -8 -43 -26 -38 -26 7 0 77 -26 100 -55 50
l-16 -28 6 28 c3 16 3 38 -1 50 -7 22 -7 22 -15 2 -4 -11 -8 -43 -8 -72 -1
-39 -6 -57 -22 -72 -18 -16 -19 -23 -9 -41 10 -18 9 -21 -2 -18 -21 7 -21 82
2 164 23 87 55 153 99 208 22 28 29 45 25 60 -10 32 -42 63 -73 69 -16 4 -32
16 -39 31 -6 14 -16 26 -22 26 -37 0 -140 -92 -140 -125 0 -21 3 -20 55 25 25
22 51 40 56 40 10 0 29 -42 29 -65 0 -10 -9 -12 -32 -9 -27 5 -38 0 -62 -25
-28 -29 -76 -43 -76 -21 0 19 -27 10 -55 -20 -37 -39 -45 -38 -45 6 0 49 20
82 105 175 22 23 19 29 -15 29 -35 0 -96 -23 -122 -47 -22 -20 -24 -19 -40 40
-15 56 -6 67 54 67 43 0 52 10 43 50 -10 46 -30 60 -87 60 -27 0 -48 3 -46 8
36 83 40 101 24 117 -51 52 19 91 133 75 36 -5 86 -6 111 -3 41 6 44 5 31 -10
-7 -10 -19 -17 -27 -17 -23 0 -24 -17 -3 -44 11 -14 30 -26 41 -26 21 0 21 0
-2 -25 -23 -25 -23 -25 -2 -25 11 0 24 -4 27 -10 3 -5 1 -10 -6 -10 -10 0 -10
-3 -1 -12 24 -24 14 -58 -23 -79 -20 -12 -35 -29 -35 -39 0 -30 19 -70 35 -77
22 -8 40 19 65 100 23 71 40 87 40 36 l0 -32 60 6 c69 6 134 34 138 60 14 73
-71 181 -163 209 -84 26 -207 51 -265 54 -30 1 -66 5 -80 8 -14 2 -59 -4 -100
-15z m10 -314 c-9 -11 -16 -13 -23 -6 -7 7 -6 15 3 26 9 11 16 13 23 6 7 -7 6
-15 -3 -26z m88 -8 c3 -16 1 -17 -17 -7 -25 13 -28 33 -4 28 10 -2 19 -11 21
-21z m249 -317 c4 0 15 8 25 17 24 22 49 3 32 -25 -16 -25 -57 -27 -78 -3 -16
18 -17 23 -5 37 13 16 14 16 17 -4 2 -12 6 -22 9 -22z m278 0 c0 -22 -39 -19
-43 3 -3 15 1 18 20 15 12 -2 23 -10 23 -18z m-581 -21 c30 -24 33 -45 9 -71
-28 -31 9 -22 67 17 29 19 53 35 54 35 1 0 3 -17 4 -37 2 -21 5 -39 7 -41 2
-2 20 1 42 7 39 11 143 15 143 6 0 -15 -42 -85 -50 -85 -9 0 -14 22 -11 43 2
15 -14 6 -37 -20 l-23 -28 5 26 c4 18 0 31 -10 40 -14 12 -19 10 -38 -14 -12
-15 -32 -27 -44 -27 -25 0 -30 -15 -7 -24 22 -8 18 -36 -5 -36 -11 0 -20 -4
-20 -10 0 -5 5 -10 10 -10 6 0 10 -13 10 -30 0 -36 -31 -70 -63 -70 -54 0 -63
57 -17 115 36 45 36 47 7 80 -40 47 -72 11 -83 -93 -8 -89 -13 -102 -33 -102
-28 0 -78 63 -86 108 -8 49 10 119 38 150 14 15 32 22 58 22 44 0 54 10 34 36
-30 39 -5 47 39 13z m725 -45 c41 -53 36 -144 -8 -144 -32 0 -51 38 -51 101 0
30 3 59 7 62 13 14 32 7 52 -19z m-114 -14 c21 -40 21 -130 0 -130 -9 0 -24
13 -33 30 -9 16 -25 30 -34 30 -22 0 -23 19 -4 65 19 45 49 47 71 5z m185
-173 c0 -19 -4 -27 -12 -25 -15 5 -22 42 -13 66 5 14 7 14 15 2 6 -8 10 -28
10 -43z m-160 -12 c0 -19 -11 -19 -36 0 -18 14 -18 14 9 15 17 0 27 -5 27 -15z
m-63 -17 c34 -38 45 -67 38 -101 -10 -44 -23 -57 -55 -57 -53 0 -59 29 -29
143 11 43 18 45 46 15z m-397 4 c0 -16 -32 -52 -46 -52 -17 0 -17 1 -4 34 9
24 50 39 50 18z m-566 -78 c13 -33 -43 -184 -68 -184 -8 0 -22 7 -30 16 -14
14 -13 21 16 77 54 107 69 124 82 91z m1093 -46 c18 -36 7 -60 -26 -56 -29 3
-55 45 -45 73 10 26 56 15 71 -17z m-1017 -9 c0 -7 -10 -27 -21 -46 -18 -29
-20 -39 -10 -60 15 -32 5 -65 -17 -61 -32 6 -27 88 8 146 20 32 40 43 40 21z
m108 -45 c-5 -28 -28 -29 -28 -1 0 13 3 27 7 30 10 11 25 -9 21 -29z m780 -56
c29 -29 -3 -122 -33 -98 -18 15 -38 77 -31 95 7 18 47 20 64 3z m107 -65 c0
-82 -11 -101 -45 -83 -20 11 -22 18 -17 65 7 65 23 97 45 93 14 -3 17 -16 17
-75z m87 -78 c1 -50 -2 -101 -6 -113 l-8 -24 -25 24 c-39 36 -45 53 -28 85 8
15 15 42 15 58 0 35 28 81 41 68 5 -5 9 -49 11 -98z m-1174 -9 c7 -32 -50 -50
-76 -24 -9 9 -8 16 5 30 22 24 66 20 71 -6z m17 -127 c8 -35 -10 -79 -32 -79
-15 0 -17 47 -3 84 13 35 27 33 35 -5z m1085 6 c17 -9 30 -20 30 -25 0 -6 9
-10 20 -10 11 0 20 -5 20 -10 0 -21 -30 -70 -49 -80 -52 -28 -141 6 -141 53 0
23 20 62 20 40 0 -7 9 -22 20 -33 24 -24 90 -28 90 -6 0 7 -16 26 -35 40 -55
43 -38 64 25 31z m-452 -105 c2 -14 11 -33 20 -43 8 -9 16 -36 16 -59 1 -34
-3 -43 -18 -46 -26 -5 -46 23 -46 64 0 18 -5 45 -10 60 -6 15 -8 34 -5 41 8
23 40 10 43 -17z m-724 -2 c21 -30 2 -52 -20 -24 -16 23 -19 46 -5 46 6 0 17
-10 25 -22z m939 -14 c13 -14 -15 -44 -49 -53 -42 -12 -78 -1 -93 27 -15 28
-6 32 69 32 37 0 70 -3 73 -6z m60 -72 c-5 -9 -27 -20 -47 -24 -21 -5 -51 -17
-66 -28 -22 -16 -30 -17 -38 -7 -6 7 -8 18 -4 24 13 20 77 53 104 53 19 0 29
7 34 23 l7 22 10 -23 c8 -16 8 -29 0 -40z m-1133 34 c0 -18 -17 -29 -30 -21
-8 5 -7 11 1 21 15 18 29 18 29 0z m810 -106 c0 -5 -7 -10 -15 -10 -8 0 -15
-5 -15 -10 0 -11 7 -14 53 -24 21 -5 27 -12 27 -32 0 -18 -7 -28 -21 -31 -18
-5 -20 -11 -16 -40 7 -40 53 -123 69 -123 7 0 9 17 5 50 -3 28 -4 50 -2 50 2
0 18 -20 35 -45 39 -56 78 -85 90 -65 10 17 -3 52 -35 94 -14 18 -25 38 -25
44 0 24 20 11 45 -28 18 -29 32 -40 50 -40 13 0 27 -5 31 -12 9 -14 36 -259
30 -266 -2 -2 -29 22 -60 52 -87 88 -96 71 -29 -54 46 -86 80 -129 109 -140
20 -8 24 -17 24 -47 0 -87 8 -151 24 -201 10 -29 15 -59 12 -67 -7 -18 -97
-20 -283 -5 -172 14 -230 27 -244 51 -6 11 -19 75 -31 141 -11 67 -24 132 -29
145 -9 24 -24 30 -34 13 -10 -15 -21 -12 -53 15 -32 26 -62 33 -62 13 0 -6 23
-38 51 -70 34 -39 48 -64 45 -75 -4 -10 -29 -33 -56 -51 -50 -32 -65 -62 -32
-62 10 0 37 16 60 36 24 20 49 34 56 31 15 -6 41 -131 31 -147 -4 -6 -17 -10
-31 -10 -21 0 -24 5 -24 35 0 42 -8 44 -41 9 -39 -42 -79 -58 -149 -58 -82 -1
-149 24 -191 71 -30 35 -31 39 -25 97 21 202 21 198 0 194 -12 -2 -20 -13 -22
-28 -5 -57 -35 -190 -42 -190 -4 0 -15 11 -24 25 -23 35 -50 39 -168 20 -107
-17 -113 -16 -179 20 -35 20 -212 40 -270 31 -42 -6 -47 -10 -53 -38 -10 -53
-7 -695 4 -678 5 8 10 98 11 200 1 188 7 247 23 221 5 -7 10 -92 11 -187 1
-96 4 -177 8 -181 16 -15 21 15 30 159 5 84 15 167 23 187 13 32 14 10 11
-209 -2 -135 0 -261 3 -280 l7 -35 11 28 c7 16 12 41 12 57 0 16 5 32 11 36
12 7 6 -300 -10 -536 l-6 -95 -33 48 c-21 29 -39 46 -47 43 -10 -4 -18 16 -30
72 -57 271 -94 383 -182 552 -192 367 -462 557 -608 428 -19 -16 -32 -34 -29
-39 3 -5 42 -9 87 -9 155 0 261 -44 367 -150 142 -144 235 -362 326 -770 31
-135 32 -137 92 -198 26 -26 75 -85 109 -132 35 -47 85 -114 113 -150 72 -92
130 -212 137 -284 l6 -58 -174 7 c-96 3 -181 9 -191 11 -11 3 -20 25 -28 71
-16 96 -75 211 -96 190 -3 -3 8 -42 25 -86 31 -81 42 -173 21 -186 -6 -3 -12
0 -13 7 -24 92 -76 198 -97 198 -17 0 -11 -28 16 -81 14 -28 24 -58 22 -67 -3
-11 -12 -2 -27 28 -13 25 -41 70 -63 100 -43 60 -68 135 -94 285 -17 99 -18
100 -26 58 -7 -33 -14 -43 -29 -43 -25 0 -24 16 8 130 24 84 27 112 27 240 0
293 -38 374 -288 626 -136 136 -274 244 -313 244 -39 0 -23 -21 58 -74 85 -56
300 -268 377 -371 29 -38 67 -99 85 -135 32 -64 32 -66 31 -205 0 -171 -42
-425 -77 -462 -24 -27 -87 -41 -229 -49 -120 -7 -151 -19 -130 -53 18 -31 1
-26 -44 12 -53 45 -81 59 -104 52 -24 -8 -25 -18 -3 -36 9 -8 22 -28 29 -46
10 -23 18 -30 33 -26 15 4 20 -1 23 -19 l3 -23 201 -3 201 -2 -14 -103 c-7
-56 -15 -121 -19 -144 l-5 -43 -417 0 c-229 0 -427 3 -439 6 -53 14 -28 36
153 130 71 37 154 85 184 106 31 21 61 38 68 38 24 0 11 31 -20 50 -31 19 -33
24 -34 77 -1 91 -29 207 -100 424 -36 110 -63 203 -61 205 8 8 93 -203 141
-350 45 -135 72 -196 88 -196 16 0 7 108 -17 208 -73 302 -286 713 -475 915
-40 43 -71 80 -69 82 3 2 49 16 104 30 80 21 126 27 232 28 72 1 135 6 139 10
4 4 -15 7 -42 8 -27 0 -58 4 -69 8 -19 8 -19 8 0 18 11 6 71 25 133 42 264 75
851 287 1094 397 67 29 123 54 125 54 2 0 3 -8 3 -17 0 -23 76 -93 140 -128
48 -25 65 -29 130 -29 225 1 583 209 691 399 17 30 36 58 43 63 6 4 17 19 25
35 8 15 35 41 60 57 50 34 51 34 51 20z m-270 -73 c36 -18 66 -39 68 -48 8
-43 -156 -194 -322 -295 -122 -74 -176 -89 -326 -89 -124 0 -125 0 -170 31
-47 33 -96 81 -89 87 2 2 108 57 234 121 127 65 237 124 246 132 24 21 46 17
53 -11 8 -32 -1 -67 -30 -127 -29 -57 -41 -123 -25 -133 19 -11 41 15 41 47 0
15 14 57 31 91 22 42 33 82 37 124 5 69 17 85 72 102 51 15 106 5 180 -32z
m460 33 c0 -11 -63 -24 -82 -17 -8 3 -4 9 12 15 32 14 70 15 70 2z m-7396
-293 c-3 -21 -24 -83 -45 -138 -42 -109 -48 -144 -23 -153 28 -11 80 -6 100 9
10 8 30 15 43 15 21 0 22 3 15 28 -9 28 -9 161 0 197 5 19 13 20 123 19 73 -1
130 -6 150 -15 29 -12 34 -11 46 5 12 17 23 18 88 13 68 -6 174 -33 274 -70
22 -8 94 -19 160 -25 141 -13 224 -39 360 -112 56 -30 102 -49 112 -46 21 7
95 -26 175 -77 96 -62 279 -226 295 -265 8 -20 19 -81 25 -136 5 -56 13 -105
18 -110 13 -13 25 59 24 144 -1 94 -24 164 -71 220 -35 41 -36 43 -18 56 10 8
38 14 62 14 33 0 50 -7 74 -28 27 -24 33 -37 37 -85 4 -54 5 -56 36 -59 25 -2
34 -10 49 -40 20 -43 32 -48 40 -16 5 18 8 19 21 8 19 -15 21 -54 3 -68 -6 -6
-24 -13 -40 -17 -24 -7 -40 -35 -18 -35 5 0 8 -14 7 -32 -1 -38 27 -51 48 -22
16 22 36 10 36 -21 0 -38 -17 -73 -42 -86 -23 -12 -23 -12 -4 9 11 13 16 28
12 38 -10 25 -60 13 -137 -34 -61 -37 -362 -192 -374 -192 -3 0 -5 13 -5 29 0
82 -81 447 -106 478 -15 17 -15 17 -9 -2 33 -100 88 -428 83 -491 l-3 -38
-230 -123 c-344 -184 -647 -333 -680 -336 l-30 -2 -12 82 c-7 55 -18 92 -32
109 -16 20 -21 41 -21 85 0 62 -15 88 -26 42 -16 -73 -22 -74 -17 -3 3 44 14
93 25 118 17 36 20 57 15 120 -10 148 -73 362 -107 362 -17 0 -11 -29 36 -173
52 -161 60 -222 29 -222 -18 0 -21 -9 -28 -78 -8 -86 -35 -152 -66 -162 -24
-7 -45 -52 -62 -130 -6 -33 -15 -64 -19 -68 -4 -4 -10 56 -14 135 -10 214 -60
651 -86 763 -5 22 -7 41 -6 43 4 4 70 -76 119 -144 41 -57 87 -150 87 -176 0
-10 5 -18 10 -18 33 0 15 86 -36 173 -38 65 -41 77 -19 77 18 0 18 0 4 75 -16
88 -129 248 -259 369 -90 82 -137 71 -86 -20 14 -26 26 -48 26 -50 0 -2 -10
-4 -22 -4 -12 0 -39 -12 -60 -26 -43 -30 -253 -93 -310 -94 -75 0 -82 72 -12
128 31 25 46 62 25 62 -10 0 -81 -77 -97 -106 -10 -17 -13 -17 -28 -5 -27 22
-46 67 -46 106 0 43 -18 46 -26 5 -9 -41 -24 -38 -24 5 0 42 42 130 67 139 9
4 68 10 130 13 134 7 136 5 110 -95 -10 -36 -15 -67 -12 -70 20 -21 93 130
141 293 l18 60 8 -45 c5 -25 6 -62 2 -83z m7650 1 c8 -22 4 -34 -22 -74 -18
-26 -32 -58 -32 -71 0 -34 -25 -28 -41 9 -20 48 -17 123 6 148 27 30 77 24 89
-12z m1004 -58 c51 -6 102 -15 113 -20 23 -13 25 -45 3 -54 -21 -8 -201 -8
-287 1 -63 5 -66 7 -46 21 15 10 19 21 15 38 -6 23 -5 24 51 24 32 0 100 -5
151 -10z m-345 -29 c-3 -14 3 -21 24 -29 l28 -10 -32 -1 c-17 -1 -39 6 -47 15
-20 19 -20 19 0 38 19 20 34 13 27 -13z m-8948 -68 c42 -49 88 -111 101 -139
27 -55 85 -119 103 -113 7 3 -1 21 -19 46 -35 47 -28 61 18 33 39 -24 64 -62
60 -92 -3 -26 -94 -78 -135 -78 -27 0 -27 -2 -8 43 11 26 12 43 5 62 -10 27
-59 61 -102 70 -40 9 -84 65 -97 124 -20 95 -24 131 -13 131 5 0 45 -39 87
-87z m691 45 c-8 -49 -45 -130 -63 -136 -15 -4 -3 48 28 122 27 67 44 73 35
14z m9716 22 c39 -11 59 -43 39 -63 -8 -8 -64 -12 -162 -12 -122 0 -151 3
-159 15 -14 22 -12 36 6 54 12 13 39 16 127 16 62 0 129 -5 149 -10z m-355
-34 c6 -19 8 -37 5 -40 -3 -3 -28 -6 -55 -6 -49 0 -49 0 -42 27 10 40 24 53
55 53 22 0 29 -6 37 -34z m1124 12 c44 -13 74 -41 64 -59 -6 -8 -38 -10 -114
-7 -138 7 -146 10 -112 49 22 25 33 29 75 29 27 0 66 -5 87 -12z m-261 -23
c17 -20 4 -35 -31 -35 -21 0 -29 5 -29 18 0 10 3 22 7 25 11 12 40 8 53 -8z
m-1667 -81 c36 -6 52 -24 21 -24 -26 0 -10 -23 24 -34 l33 -11 -33 -14 -33
-14 44 -6 c38 -5 46 -10 52 -34 10 -36 2 -57 -20 -57 -10 0 -26 -7 -37 -15
-19 -15 -19 -15 0 -30 11 -8 38 -15 60 -16 l41 0 -52 -20 c-29 -11 -53 -24
-53 -29 0 -11 27 -20 63 -20 35 0 175 -34 185 -45 9 -9 -91 0 -183 15 -40 7
-123 10 -196 8 -128 -5 -177 -16 -129 -29 l25 -7 -22 -7 c-28 -9 -29 -22 -3
-30 27 -9 25 -25 -2 -25 -16 0 -19 -3 -11 -11 16 -16 103 -2 110 18 4 9 -1 21
-12 29 -16 12 -5 14 82 14 64 0 116 -5 143 -15 29 -10 64 -14 109 -10 l66 5
-69 -15 c-37 -8 -78 -21 -91 -29 -17 -11 -68 -17 -189 -22 -92 -4 -163 -11
-159 -15 22 -21 3034 -61 3120 -42 26 7 52 8 57 3 13 -13 25 -88 26 -160 0
-47 -6 -76 -20 -103 l-20 -37 25 -10 c14 -5 28 -17 31 -25 4 -8 15 -15 26 -15
11 0 18 -5 15 -12 -2 -7 -11 -13 -19 -13 -8 0 -26 -14 -41 -30 l-25 -30 -164
0 c-211 1 -283 16 -443 95 -126 62 -259 110 -304 110 -14 0 -43 9 -63 20 -27
14 -72 22 -164 30 -163 13 -411 13 -419 0 -4 -7 58 -10 179 -10 117 0 186 -4
186 -10 0 -5 -24 -10 -53 -10 -194 0 -448 -85 -637 -214 l-75 -51 -159 4
c-113 2 -156 0 -152 -8 4 -7 42 -11 96 -11 189 0 194 -37 22 -165 -42 -31 -68
-59 -70 -73 -4 -24 -21 -29 -40 -9 -14 13 -343 24 -390 12 -25 -6 -26 -8 -9
-19 28 -21 20 -26 -37 -26 -36 0 -60 5 -70 16 -15 14 -17 14 -32 0 -11 -12
-35 -16 -92 -15 -73 1 -75 1 -47 14 23 10 26 15 14 19 -26 11 -282 2 -286 -9
-2 -6 3 -20 11 -30 14 -19 30 -20 376 -23 199 -2 374 0 389 3 l26 7 -24 9
c-14 6 -38 7 -54 3 -16 -3 -45 -2 -65 2 -32 7 -23 9 58 15 94 6 170 2 170 -10
0 -3 -27 -25 -60 -48 -33 -24 -60 -49 -60 -57 0 -8 -10 -18 -22 -21 -35 -11
-88 -66 -88 -92 0 -34 -23 -39 -210 -52 -91 -6 -192 -14 -225 -18 -107 -12
-22 -21 143 -16 156 5 222 0 222 -18 0 -21 -75 -40 -173 -45 -183 -9 -216 -17
-164 -42 18 -9 11 -11 -45 -11 -56 -1 -66 2 -62 14 8 20 -34 35 -97 35 -47 0
-109 22 -109 38 1 23 44 52 82 53 18 0 16 3 -12 12 l-35 12 2 265 c0 146 4
307 8 358 7 88 8 92 30 92 13 0 36 -5 52 -11 26 -10 27 -12 8 -19 -11 -5 -33
-11 -48 -15 -37 -8 -25 -25 18 -25 47 0 65 9 65 32 0 44 -18 58 -76 58 l-56 0
7 113 c21 367 28 413 60 401 8 -4 15 -1 15 6 0 7 12 27 28 45 15 19 34 44 43
57 15 20 27 23 113 29 53 3 99 9 103 13 17 17 -23 28 -117 33 -100 6 -102 7
-80 23 26 19 22 50 -6 50 -14 0 -14 3 -4 15 14 17 14 17 -15 33 -16 9 -8 11
45 12 36 0 82 -3 103 -6z m1062 -55 c24 -11 31 -22 35 -54 l5 -40 59 -3 c47
-2 59 -7 63 -22 3 -10 11 -21 19 -24 8 -3 14 -16 14 -29 0 -14 9 -36 20 -50
27 -34 47 -92 55 -162 l8 -58 -169 5 c-175 6 -204 10 -204 34 0 8 -11 14 -27
15 -16 0 -22 3 -15 6 26 10 10 24 -50 40 l-63 18 173 5 c104 3 172 9 172 15 0
6 -71 15 -172 21 -95 7 -174 12 -176 13 -11 4 13 21 29 21 10 0 28 9 39 20 16
16 18 25 10 40 -9 16 -21 20 -61 20 -43 0 -55 -5 -80 -29 -32 -32 -35 -51 -18
-100 10 -29 9 -34 -10 -47 -27 -19 -27 -42 1 -71 l21 -23 -54 0 -54 0 1 95 c2
95 2 96 40 142 21 25 52 54 70 65 33 20 44 42 44 95 0 17 4 34 9 38 13 7 31
-27 31 -58 0 -14 6 -30 14 -37 8 -6 16 -21 18 -33 3 -21 9 -22 128 -27 132 -5
150 -10 150 -39 0 -23 25 -44 78 -64 66 -26 83 -22 46 11 -17 15 -36 39 -42
54 -21 49 -53 61 -191 69 -69 4 -127 7 -128 8 -1 1 7 17 18 36 12 19 18 43 15
51 -4 9 -4 26 0 37 5 16 13 19 53 15 25 -3 60 -11 76 -19z m-9371 -116 c47
-59 86 -112 86 -119 0 -6 -7 -15 -17 -18 -14 -6 -12 -11 12 -35 38 -40 23 -62
-17 -24 -40 38 -53 63 -38 73 23 14 -32 90 -64 90 -3 0 -6 -7 -6 -16 0 -29
-19 -3 -25 34 -8 49 -25 92 -36 92 -12 0 -11 -26 1 -71 21 -74 -15 -108 -79
-74 -49 25 -55 68 -13 107 27 26 91 68 104 68 4 0 45 -48 92 -107z m10006 57
c0 -46 -9 -72 -21 -64 -10 6 -12 74 -3 98 10 27 24 7 24 -34z m-1072 -11 c-4
-11 -79 -41 -86 -34 -2 2 6 13 17 24 22 22 75 29 69 10z m1898 -59 c2 -35 5
-40 19 -40 28 0 94 -40 142 -85 46 -44 46 -45 40 -96 -8 -66 -27 -95 -69 -102
-57 -10 -388 17 -398 32 -6 11 -14 11 -41 1 -22 -7 -129 -14 -301 -17 -239 -5
-270 -4 -293 11 -24 16 -24 18 -11 44 20 39 66 80 66 59 0 -8 9 -17 20 -19 28
-4 27 -22 -2 -28 -35 -9 -29 -35 7 -33 106 5 216 17 221 24 5 9 -56 28 -96 30
-14 1 19 5 73 9 54 4 101 11 104 14 14 14 -12 19 -122 24 -63 2 -115 8 -115
13 0 17 67 20 185 9 l124 -13 47 32 c56 37 68 39 58 9 -5 -18 5 -12 43 23 54
51 89 71 167 100 61 22 131 21 132 -1z m278 -114 c22 -17 51 -31 65 -32 30 -1
31 -24 2 -63 -17 -24 -50 -44 -37 -23 7 12 -17 43 -86 113 -27 27 -48 53 -48
59 0 14 54 -14 104 -54z m-5549 9 c0 -10 -6 -20 -12 -22 -8 -3 -13 5 -13 22 0
17 5 25 13 23 6 -3 12 -13 12 -23z m603 19 c17 -5 22 -14 22 -40 0 -59 -43
-59 -78 -1 -15 24 -15 29 -2 37 18 11 27 12 58 4z m1810 -20 c12 -4 25 -17 28
-30 4 -14 1 -113 -5 -222 -6 -108 -16 -357 -21 -552 -6 -195 -17 -427 -25
-515 -14 -148 -22 -457 -14 -515 4 -24 2 -25 -73 -30 -88 -7 -118 -23 -74 -40
42 -16 116 -12 176 9 71 24 224 35 324 21 76 -10 94 -15 85 -25 -3 -2 -70 -8
-149 -13 l-145 -9 110 -2 c118 -2 197 -13 203 -29 13 -41 29 -47 144 -52 92
-4 113 -8 113 -20 0 -9 -7 -14 -20 -12 -109 19 -171 12 -209 -23 -14 -13 -26
-35 -26 -48 l0 -24 -372 -8 c-205 -5 -384 -9 -398 -8 -14 0 -554 6 -1200 12
-646 6 -1406 15 -1689 19 -585 9 -541 1 -541 99 0 58 19 107 45 117 9 3 233 6
498 6 714 0 2863 20 2932 28 l60 7 7 90 c4 50 16 349 28 665 20 560 25 651 51
928 8 82 9 135 3 141 -5 4 -29 6 -53 3 -41 -4 -43 -5 -37 -33 6 -31 -2 -37
-22 -17 -30 30 -5 62 63 79 38 9 172 11 203 3z m2337 -4 c7 -12 -58 -12 -95 0
-19 6 -12 8 32 9 31 1 60 -3 63 -9z m-10463 -27 c20 -9 39 -22 42 -29 6 -16
-26 -39 -67 -50 -32 -7 -43 -28 -52 -96 -11 -87 -57 -49 -47 40 3 29 0 42 -8
42 -22 0 -39 -34 -40 -76 0 -51 38 -96 79 -92 24 3 26 0 29 -40 3 -40 2 -42
-16 -31 -16 10 -24 9 -47 -9 -20 -16 -31 -19 -40 -12 -10 8 -19 4 -34 -16 -33
-42 -28 -64 14 -64 51 0 44 -41 -9 -51 -10 -2 -23 -14 -27 -27 -7 -18 -3 -29
18 -50 l27 -27 7 37 c3 20 11 43 18 51 18 22 65 39 97 35 26 -3 29 -7 32 -44
4 -53 30 -78 83 -78 27 -1 44 -7 50 -18 5 -9 12 -63 15 -120 6 -93 5 -105 -12
-120 -22 -19 -293 -74 -304 -61 -10 10 -50 269 -50 323 0 22 -4 40 -10 40 -20
0 -22 -75 -5 -188 32 -218 33 -200 -9 -217 -95 -40 -139 -32 -166 28 -11 23
-20 52 -20 64 0 42 -80 277 -102 300 -12 13 -36 27 -52 31 -50 13 -55 37 -48
222 l7 165 55 27 c53 27 113 35 136 20 32 -21 43 -108 28 -204 -6 -36 -24 -54
-24 -25 0 7 -11 28 -25 47 -17 24 -25 47 -25 76 0 73 -37 71 -47 -2 -4 -34 0
-45 31 -84 20 -25 36 -52 36 -61 0 -9 9 -28 21 -43 22 -27 30 -53 49 -148 9
-47 15 -58 31 -58 15 0 19 5 15 18 -26 89 -28 116 -21 285 7 175 7 179 -15
202 -12 13 -19 28 -16 33 12 20 163 61 276 75 42 5 103 -4 142 -20z m7760 11
c23 -14 -11 -24 -85 -24 -80 0 -130 13 -97 24 40 14 159 14 182 0z m-1911
-204 c1 -166 13 -219 53 -239 21 -10 39 -11 63 -5 53 14 44 29 -20 32 -49 3
-58 6 -55 20 3 15 26 18 218 22 118 3 210 8 203 13 -6 4 -93 11 -193 16 -138
7 -186 13 -205 25 -31 20 -33 61 -5 76 11 6 20 17 20 24 0 8 -9 16 -20 19 -11
3 -20 10 -20 16 0 7 18 10 53 6 28 -2 192 -7 362 -10 557 -10 975 -43 975 -77
0 -14 -145 -4 -255 17 -157 31 -260 21 -253 -24 3 -14 -13 -16 -147 -13 -190
4 -186 -12 12 -40 152 -22 207 -44 83 -33 -120 10 -219 24 -310 45 -80 18
-373 50 -460 50 -40 0 -53 -13 -24 -24 16 -6 112 -17 317 -37 66 -6 140 -17
165 -24 99 -28 270 -41 739 -55 194 -6 363 -14 375 -19 12 -4 -132 -11 -328
-14 -352 -7 -437 -13 -399 -28 11 -4 58 -8 105 -9 47 0 103 -5 125 -10 22 -6
135 -16 250 -24 155 -10 219 -17 242 -30 19 -9 57 -16 95 -17 35 0 79 -5 98
-12 37 -13 52 -43 28 -58 -23 -15 -91 -9 -136 11 -68 31 -302 52 -737 65 -289
9 -538 31 -672 61 -38 8 -26 -12 15 -24 104 -30 264 -45 722 -67 420 -20 520
-30 588 -61 30 -14 76 -29 103 -35 27 -6 49 -13 49 -15 0 -2 -41 -4 -90 -4
-86 0 -92 1 -121 29 -39 38 -99 44 -376 39 -184 -3 -227 -8 -211 -24 3 -3 109
-12 234 -20 223 -15 230 -16 250 -40 44 -53 287 -58 341 -8 24 22 28 23 42 9
13 -13 14 -20 2 -48 -16 -38 -17 -52 -6 -91 7 -27 6 -29 -16 -23 -13 4 -125
11 -249 17 -406 18 -562 29 -785 55 -251 29 -440 41 -479 31 -14 -3 -26 -13
-26 -21 0 -43 90 -58 445 -75 127 -5 383 -17 570 -26 187 -8 381 -19 430 -24
50 -5 93 -10 98 -10 4 0 7 -7 7 -16 0 -13 -8 -14 -57 -7 -73 10 -449 11 -485
0 -16 -4 -28 -14 -28 -22 0 -8 -12 -18 -26 -21 -29 -8 -488 3 -546 12 -85 14
-24 19 219 19 248 0 320 6 308 24 -2 5 -85 12 -182 15 -323 12 -625 26 -829
37 -133 8 -207 8 -219 2 -33 -19 43 -34 225 -43 262 -14 345 -21 361 -31 12
-7 12 -9 0 -9 -10 0 -12 -3 -5 -10 17 -17 216 -39 464 -50 298 -14 301 -14
147 -24 -81 -5 -125 -12 -119 -18 5 -5 83 -14 173 -20 90 -5 166 -12 168 -14
14 -13 -34 -13 -270 0 -148 9 -268 11 -273 6 -20 -20 114 -34 319 -35 261 0
337 8 371 40 22 21 33 23 73 18 91 -11 195 -33 205 -43 17 -17 2 -19 -54 -4
-65 17 -118 18 -157 3 -34 -13 -44 -28 -37 -53 6 -18 1 -19 -127 -12 -74 4
-350 22 -614 41 -502 36 -635 42 -635 25 0 -13 28 -18 150 -25 111 -6 354 -39
405 -54 l30 -9 -32 -1 c-41 -1 -43 -17 -3 -26 36 -8 50 -25 20 -25 -39 0 -112
23 -117 36 -11 30 -78 37 -358 39 -154 1 -290 5 -302 9 -11 4 -24 13 -27 21
-4 13 10 15 85 15 68 0 90 3 87 13 -3 7 -33 15 -77 19 -70 6 -103 19 -88 35 4
4 44 6 88 4 63 -1 80 1 77 11 -3 8 -31 16 -69 20 -101 12 -129 18 -129 28 0 6
41 10 94 10 52 0 97 4 100 9 9 13 -31 21 -113 21 l-74 0 7 179 c7 186 -1 354
-15 345 -5 -3 -9 -25 -9 -50 0 -47 -14 -59 -24 -21 -12 45 1 333 20 435 13 66
24 8 25 -128z m252 120 c84 -5 287 -14 452 -20 388 -14 571 -25 1029 -61 154
-12 187 -23 97 -34 -64 -7 -267 -1 -491 15 -69 5 -249 14 -400 20 -151 6 -374
17 -495 25 -121 8 -247 12 -280 9 -49 -4 -66 -2 -92 15 -31 19 -42 48 -26 64
3 4 17 0 30 -9 17 -11 67 -18 176 -24z m-2063 -30 c-37 -14 -257 -50 -294 -49
l-31 1 34 14 c66 29 138 43 226 43 65 -1 83 -3 65 -9z m-1803 -29 c227 -46
413 -117 413 -160 0 -14 -10 -20 -43 -24 -76 -11 -462 -19 -473 -10 -14 10
-64 223 -53 223 4 0 75 -13 156 -29z m9273 17 c0 -7 -5 -31 -11 -53 l-12 -40
-18 43 c-11 24 -16 48 -13 53 8 14 54 11 54 -3z m-3614 -373 c15 -33 12 -63
-4 -39 -4 6 -15 13 -24 17 -24 8 -32 79 -25 221 9 185 21 184 29 -2 5 -119 12
-172 24 -197z m3459 335 c0 -19 -47 -25 -77 -9 -22 12 -22 12 -3 20 32 13 80
6 80 -11z m-8667 -22 c-7 -19 -40 -21 -63 -4 -19 14 -17 15 23 16 31 0 42 -4
40 -12z m1402 -24 c0 -47 12 -69 76 -133 229 -229 527 -908 475 -1080 -9 -33
-9 -47 4 -77 20 -49 20 -50 -17 -50 -22 0 -80 -26 -173 -76 -77 -42 -160 -85
-184 -94 -43 -17 -44 -17 -62 4 -40 50 -51 211 -24 362 21 117 19 178 -5 217
-28 47 -110 84 -110 50 0 -7 15 -18 33 -25 60 -22 69 -73 41 -253 -20 -130
-14 -229 20 -334 31 -97 31 -99 5 -92 -15 4 -19 1 -17 -11 2 -11 18 -19 47
-24 53 -9 64 -18 90 -72 25 -51 28 -144 6 -185 -14 -29 -71 -51 -129 -51 -35
0 -42 18 -12 30 27 10 32 20 17 36 -5 5 -11 53 -13 106 -3 85 -6 100 -25 120
-30 30 -38 18 -24 -36 20 -80 8 -240 -20 -256 -20 -13 -10 -18 61 -29 103 -17
138 -14 165 13 l23 23 38 -38 c21 -21 34 -42 30 -46 -12 -12 -211 -6 -342 11
-66 9 -186 28 -269 43 l-150 28 75 6 c152 13 230 10 262 -8 28 -17 30 -17 44
2 24 32 37 95 37 180 1 93 -10 120 -54 129 -50 10 -445 7 -544 -4 -49 -6 -93
-16 -97 -23 -4 -6 -9 -9 -11 -7 -9 10 -84 166 -107 222 l-23 56 22 27 c19 26
21 39 21 184 0 306 -71 765 -146 943 -14 33 -22 63 -18 69 12 20 60 30 273 60
119 16 272 43 341 60 149 37 258 57 323 58 l47 1 0 -36z m-765 -29 c-43 -19
-200 -36 -228 -25 -12 5 -20 10 -17 11 4 2 225 24 265 27 6 0 -3 -6 -20 -13z
m-425 -31 c13 -14 13 -17 -4 -30 -27 -19 -100 -18 -117 2 -11 14 -10 19 11 36
27 22 84 18 110 -8z m4633 9 c-7 -2 -19 -2 -25 0 -7 3 -2 5 12 5 14 0 19 -2
13 -5z m-653 -17 c0 -14 -29 -31 -38 -22 -2 3 -2 12 1 21 8 19 37 20 37 1z
m253 -43 c-7 -2 -21 -2 -30 0 -10 3 -4 5 12 5 17 0 24 -2 18 -5z m172 -8 c48
-12 49 -13 14 -14 -19 0 -44 -8 -55 -16 -10 -8 -35 -14 -54 -14 -31 0 -32 1
-12 9 26 11 28 25 5 39 -26 15 38 13 102 -4z m285 5 c0 -5 -30 -10 -67 -12
-67 -3 -86 -17 -41 -30 20 -5 19 -6 -8 -7 -18 -1 -42 8 -55 19 -21 17 -22 21
-9 30 19 12 180 13 180 0z m-3257 -57 c44 -62 60 -93 52 -101 -8 -8 -24 12
-70 91 -41 69 -30 75 18 10z m2636 41 c48 -10 29 -19 -36 -17 -77 2 -84 4 -48
13 41 11 48 11 84 4z m4517 -10 c-3 -9 -6 -18 -6 -20 0 -2 -7 -4 -15 -4 -13 0
-14 4 -5 20 13 24 35 27 26 4z m-8512 -9 c8 -8 26 -52 40 -98 75 -250 114
-459 122 -657 3 -77 13 -169 23 -215 37 -156 39 -170 36 -174 -2 -2 -18 20
-35 48 -18 28 -36 51 -40 51 -17 0 24 -111 115 -310 32 -69 65 -147 75 -175
19 -56 45 -70 59 -33 l9 23 11 -28 c15 -39 14 -70 -6 -118 l-16 -41 -158 4
c-144 3 -160 6 -178 24 -22 24 -98 29 -616 39 -294 6 -339 10 -329 27 5 8 117
9 383 5 392 -6 561 -18 598 -43 21 -13 23 -12 38 15 8 17 15 50 15 74 0 35 -7
53 -35 88 -27 35 -31 45 -19 47 38 9 119 -111 130 -191 9 -66 30 -56 27 14 -6
168 -6 170 -102 422 -46 121 -49 148 -21 184 24 30 26 56 5 73 -19 16 -47 6
-39 -15 4 -9 -4 -25 -20 -40 -14 -13 -26 -34 -26 -45 0 -12 -12 -41 -26 -65
-30 -52 -24 -70 18 -61 27 5 29 4 18 -9 -15 -19 -5 -32 28 -37 29 -4 30 -21 0
-28 -26 -7 -44 -55 -34 -95 9 -36 27 -28 51 23 11 23 23 41 27 42 3 0 11 -12
16 -27 6 -16 24 -65 41 -111 27 -73 29 -83 14 -80 -15 3 -25 21 -39 76 -2 7
-20 12 -43 12 -21 0 -63 11 -93 25 -29 14 -68 25 -86 25 -43 0 -50 20 -22 65
27 43 52 58 85 49 36 -9 31 11 -9 35 -19 12 -37 28 -40 37 -13 33 -5 97 19
154 21 50 25 75 25 160 0 216 -54 581 -110 746 -16 49 -26 92 -21 97 4 4 30
12 57 16 27 5 52 9 56 10 4 0 13 -6 22 -14z m-312 -36 c61 -33 124 -301 148
-634 6 -82 16 -190 23 -240 14 -103 14 -402 0 -416 -6 -6 -119 22 -289 71
-366 106 -398 116 -470 156 -56 31 -188 74 -226 74 -12 0 -21 -16 -32 -54 -9
-29 -23 -59 -31 -66 -24 -20 -19 2 26 107 38 91 44 129 16 121 -19 -6 -56 -92
-79 -180 -19 -76 -19 -80 -2 -99 25 -28 49 -23 83 18 l30 37 11 -28 c18 -48
11 -71 -42 -147 -150 -214 -342 -322 -633 -358 -145 -18 -200 -14 -318 20 -88
26 -114 38 -146 69 -49 48 -92 135 -94 192 -2 38 3 51 31 82 27 31 32 45 32
85 0 68 19 82 54 40 15 -18 38 -53 50 -78 49 -95 106 -127 210 -118 125 10
251 81 392 221 104 104 169 206 203 318 12 40 31 100 42 133 11 33 24 79 28
102 4 23 13 48 20 56 6 8 22 77 35 153 25 146 54 245 74 252 16 5 15 -29 -4
-180 -16 -131 -50 -304 -85 -431 -37 -138 2 -144 46 -6 34 109 61 255 85 458
21 183 32 214 75 231 19 7 33 4 64 -17 34 -22 42 -34 52 -78 17 -79 6 -410
-20 -575 -34 -211 -38 -246 -31 -266 6 -17 9 -15 23 12 39 76 74 367 84 709 4
151 10 225 17 226 6 0 85 9 176 19 192 21 343 25 372 9z m5027 -5 c9 -8 -11
-35 -34 -46 -29 -13 -43 -5 -26 16 10 11 7 17 -11 30 -22 16 -22 17 22 10 25
-4 47 -8 49 -10z m-501 -81 c-10 -2 -26 -2 -35 0 -10 3 -2 5 17 5 19 0 27 -2
18 -5z m437 -13 c4 -6 -5 -10 -20 -10 -15 0 -24 4 -20 10 3 6 12 10 20 10 8 0
17 -4 20 -10z m3855 -19 c0 -12 -20 -25 -27 -18 -7 7 6 27 18 27 5 0 9 -4 9
-9z m-1013 -16 c284 -46 552 -198 687 -389 82 -116 165 -290 191 -401 176
-742 104 -1423 -203 -1940 -101 -170 -270 -358 -418 -464 -341 -243 -695 -272
-1069 -86 -230 114 -405 285 -514 502 -42 84 -126 357 -161 527 -45 215 -51
532 -15 771 54 354 193 718 375 977 77 111 241 279 327 336 230 154 513 214
800 167z m-8727 -39 c0 -37 -12 -86 -21 -86 -4 0 -11 9 -14 21 -12 37 -19 10
-26 -99 -4 -70 -9 -99 -14 -84 -15 43 -23 21 -28 -75 -4 -86 -11 -114 -55
-234 -107 -289 -186 -400 -342 -479 -65 -33 -142 -57 -227 -70 -78 -13 -113
-5 -113 24 0 11 -27 54 -60 94 -84 103 -203 300 -240 397 -9 23 6 31 383 226
216 112 413 214 439 227 26 13 51 21 57 18 5 -3 17 -38 25 -76 32 -141 68
-191 80 -112 3 20 2 86 -3 147 -5 60 -9 111 -8 112 6 5 153 73 159 73 4 0 8
-11 8 -24z m6148 -38 c13 -13 17 -68 5 -68 -12 0 -53 43 -53 56 0 11 13 21 31
23 3 1 10 -4 17 -11z m-6340 -136 c9 -63 0 -87 -12 -31 -7 37 -8 104 -1 97 3
-2 9 -32 13 -66z m9882 -59 c3 -78 9 -127 18 -135 20 -20 14 -63 -13 -86 -16
-14 -25 -32 -25 -50 0 -15 -5 -33 -12 -40 -9 -9 -8 -16 5 -30 11 -12 17 -36
17 -70 0 -28 5 -73 11 -100 5 -27 9 -74 7 -103 -3 -52 -4 -49 -46 106 -24 88
-58 192 -76 230 -47 99 -146 233 -232 315 -41 38 -74 72 -74 75 0 5 152 10
310 10 l105 0 5 -122z m-2060 -65 c0 -26 -216 -365 -227 -355 -2 3 26 57 63
121 37 64 64 119 61 122 -3 3 -29 -24 -57 -60 -29 -36 -56 -66 -62 -66 -20 0
52 100 136 188 56 59 86 76 86 50z m-8988 -71 c44 -37 118 -127 118 -143 0
-20 -112 -72 -173 -80 -45 -7 -47 -6 -47 19 0 40 20 177 30 203 12 30 37 30
72 1z m7468 -46 c0 -43 -11 -91 -21 -91 -10 0 -12 90 -3 114 9 24 24 9 24 -23z
m-7676 -7 c19 -19 29 -54 24 -85 -4 -23 -5 -23 -12 -4 -6 17 -21 50 -44 98 -7
13 16 7 32 -9z m7332 1 c128 -22 190 -42 221 -71 22 -20 24 -24 8 -19 -11 4
-89 18 -174 32 -158 25 -190 22 -160 -13 11 -14 11 -18 -6 -30 -21 -16 -55
-19 -55 -5 0 6 5 13 10 16 20 12 10 54 -16 72 -25 16 -28 16 -71 -7 -37 -20
-46 -21 -54 -9 -10 17 -11 33 -2 42 12 13 210 7 299 -8z m-7403 -84 c49 -12
54 -17 39 -41 -15 -24 -15 -55 -2 -81 6 -10 7 -19 2 -19 -20 0 -32 27 -32 72
0 59 -15 62 -32 7 -11 -40 -10 -45 20 -99 67 -121 62 -289 -9 -325 -42 -22
-146 -34 -209 -24 -46 7 -60 14 -83 44 -21 25 -37 35 -58 35 -32 0 -32 2 -29
76 1 37 -9 82 -36 161 -20 61 -35 117 -31 126 6 16 109 43 126 32 6 -3 13 -22
16 -43 15 -93 52 -118 41 -28 -10 89 25 113 169 115 39 0 87 -3 108 -8z m7717
-281 c-7 -69 -16 -132 -22 -140 -6 -10 -7 7 -4 50 3 36 8 119 12 185 3 66 9
125 13 130 12 19 13 -102 1 -225z m1285 144 c-36 -62 -44 -48 -9 16 16 29 30
47 32 41 2 -6 -8 -32 -23 -57z m-8834 9 c7 -18 2 -24 -31 -41 -55 -27 -68 -8
-29 42 24 31 48 31 60 -1z m6945 2 c271 -17 400 -19 409 -5 3 6 19 10 36 10
22 0 34 -8 49 -32 11 -18 20 -37 20 -42 0 -5 -103 -6 -237 -3 -307 7 -551 38
-617 78 l-31 19 70 -5 c39 -3 174 -12 301 -20z m-1328 -19 c54 -28 276 -50
667 -66 304 -13 486 -26 625 -45 58 -8 199 -19 313 -25 115 -5 213 -12 218
-16 10 -6 12 -116 3 -163 -5 -24 -11 -31 -23 -26 -23 9 -242 22 -586 35 -316
11 -675 34 -785 50 -88 13 -127 13 -114 0 19 -19 260 -47 574 -66 l125 -8 -75
-9 c-75 -8 -511 -2 -584 10 -24 3 -36 2 -33 -4 9 -14 54 -20 222 -33 77 -6
214 -18 305 -26 100 -10 207 -14 272 -11 97 5 108 4 120 -14 18 -26 86 -36
302 -44 99 -3 187 -11 195 -16 11 -7 -61 -9 -219 -6 -213 4 -240 7 -282 26
-60 27 -111 27 -136 1 l-19 -20 -48 21 c-43 19 -75 22 -304 30 -141 4 -305 11
-365 15 -77 5 -107 4 -102 -4 14 -24 176 -42 547 -62 102 -5 218 -16 257 -25
51 -10 79 -12 97 -5 54 20 115 1 115 -35 0 -7 7 -16 16 -19 25 -10 82 -7 89 4
7 11 239 12 325 1 53 -7 51 -7 -55 -16 -60 -6 -168 -10 -240 -10 -111 0 -134
3 -158 19 -24 16 -58 20 -260 27 -368 14 -495 25 -561 48 -72 26 -154 28 -163
5 -3 -8 0 -27 6 -41 9 -19 9 -24 -1 -21 -7 3 -21 27 -32 54 -28 74 -92 205
-118 244 -14 20 -23 41 -21 47 3 7 -9 19 -25 27 -34 17 -152 143 -152 161 0
28 27 32 68 11z m592 -3 c49 -6 52 -8 25 -14 -66 -15 -265 -6 -265 12 0 11
162 12 240 2z m-6217 -175 c-1 -31 -7 -67 -14 -79 -11 -22 -12 -22 -25 -4 -9
11 -14 44 -14 83 0 63 0 63 28 60 26 -3 27 -5 25 -60z m7604 -20 c-2 -13 -4
-5 -4 17 -1 22 1 32 4 23 2 -10 2 -28 0 -40z m983 -7 c30 -6 22 -8 -49 -15
-87 -7 -111 -17 -111 -44 0 -9 -10 -26 -22 -39 -12 -13 -18 -26 -14 -30 4 -5
51 -10 105 -11 79 -3 100 -1 110 12 16 19 0 46 -28 47 -26 1 19 17 52 18 34 1
35 -17 7 -114 -12 -39 -34 -123 -50 -188 -16 -64 -32 -122 -35 -127 -7 -11
-55 -14 -55 -4 0 3 11 19 25 36 29 34 30 41 10 61 -24 24 -100 29 -269 17
-160 -13 -377 -3 -398 18 -4 4 -5 51 -1 104 l6 96 100 7 c157 11 169 23 24 24
-146 1 -146 1 -127 81 13 53 18 58 38 38 17 -17 249 -23 327 -9 35 7 63 18 68
27 8 15 25 16 131 10 66 -4 137 -11 156 -15z m-3450 -113 c7 -24 23 -64 36
-91 l24 -47 -25 -10 c-15 -6 -43 -10 -63 -10 -20 0 -44 -5 -52 -10 -27 -18 9
-30 93 -30 44 0 77 -4 77 -10 0 -5 -13 -10 -29 -10 -60 0 -159 -49 -145 -72 4
-6 -2 -8 -12 -6 -23 4 -32 36 -33 120 -2 132 34 218 92 218 19 0 26 -8 37 -42z
m1948 -50 c132 -12 132 -28 1 -28 -85 0 -229 23 -259 41 -16 10 65 6 258 -13z
m442 -25 c0 -34 -18 -37 -25 -3 -8 35 3 60 16 39 5 -8 9 -24 9 -36z m-135 -18
c0 -17 -68 -17 -90 0 -19 14 -16 15 35 13 30 -2 55 -7 55 -13z m176 -115 c5 0
9 -4 9 -10 0 -5 -16 -10 -35 -10 -19 0 -35 4 -35 9 0 12 21 21 38 15 8 -2 18
-4 23 -4z m-771 -60 c-18 -12 -147 -12 -175 0 -13 6 17 9 85 9 71 1 100 -2 90
-9z m-4375 -40 c165 -6 317 -15 337 -21 48 -12 68 -33 68 -69 0 -24 -6 -30
-35 -40 -31 -10 -41 -9 -76 9 -48 25 -124 29 -115 6 6 -16 -48 -16 -479 0 -66
2 -196 0 -290 -4 -93 -5 -172 -7 -175 -4 -8 7 43 43 62 43 18 0 34 18 25 27
-3 3 -27 -2 -53 -11 -48 -16 -63 -11 -64 19 0 20 30 54 53 59 26 6 315 0 742
-14z m6068 10 c-31 -13 -130 -25 -121 -15 9 10 72 23 113 23 28 1 28 0 8 -8z
m-4991 -24 c242 -4 261 -10 256 -74 -4 -43 -16 -48 -138 -52 l-75 -3 87 -8
c48 -4 96 -10 107 -14 39 -12 21 -25 -36 -25 -58 0 -336 16 -449 26 l-61 5
-22 74 c-11 40 -21 75 -21 78 0 2 33 2 73 1 39 -2 165 -5 279 -8z m18 -195
c32 -6 -2 -9 -115 -9 -88 -1 -178 3 -200 7 -54 11 253 13 315 2z m-796 -27 c9
-4 16 -18 16 -34 0 -23 -4 -27 -20 -23 -15 4 -44 -21 -126 -106 -106 -111
-160 -158 -170 -148 -3 3 19 34 48 69 73 86 93 116 108 163 15 47 27 64 55 75
24 11 68 12 89 4z m5124 -92 c76 -29 151 -84 220 -161 l62 -70 -43 -98 c-45
-104 -63 -119 -98 -87 -26 23 -112 159 -156 244 -19 39 -39 70 -44 70 -15 0
-53 86 -46 104 8 21 46 20 105 -2z m-3020 -8 c24 -7 26 -12 13 -32 -14 -23
-81 -32 -248 -32 -270 0 -418 29 -375 75 8 9 574 -2 610 -11z m269 -5 c20 -20
127 -23 163 -5 50 25 120 20 120 -9 0 -21 -23 -24 -242 -31 l-212 -7 35 31
c27 25 43 31 80 32 25 0 50 -5 56 -11z m657 2 c11 -17 -269 -50 -313 -36 -25
8 -28 32 -3 38 33 9 311 7 316 -2z m1584 -8 c14 -28 20 -74 37 -283 8 -107 22
-270 31 -361 9 -92 14 -178 10 -193 -9 -36 -65 -49 -206 -49 -117 0 -200 15
-200 35 0 15 102 290 210 568 49 124 90 236 92 250 4 32 -22 34 -38 2 -15 -31
-24 -38 -24 -20 0 24 39 68 60 68 11 0 23 -8 28 -17z m247 -28 c6 -22 50 -105
97 -185 47 -80 115 -200 152 -267 l68 -122 -29 -26 c-94 -84 -254 -165 -272
-136 -4 6 -13 91 -20 189 -14 192 -36 442 -47 535 -7 57 -6 59 16 55 17 -2 26
-13 35 -43z m95 18 c-1 -27 -1 -27 -15 -9 -14 19 -12 36 6 36 5 0 9 -12 9 -27z
m-536 -13 c-1 -14 -18 -63 -37 -110 -20 -47 -75 -184 -123 -305 -106 -270
-139 -335 -169 -335 -26 0 -165 100 -224 161 -23 24 -47 60 -53 80 -19 64 13
103 232 291 177 152 240 212 238 227 -2 19 9 22 70 19 64 -3 67 -4 66 -28z
m343 -52 c-2 -13 -4 -3 -4 22 0 25 2 35 4 23 2 -13 2 -33 0 -45z m656 -17 c77
-74 87 -108 13 -47 -51 41 -113 116 -97 116 6 0 44 -31 84 -69z m-703 9 c0
-11 -4 -20 -10 -20 -5 0 -10 9 -10 20 0 11 5 20 10 20 6 0 10 -9 10 -20z
m-1595 -7 c-4 -10 -16 -47 -26 -83 -26 -90 -30 -94 -25 -24 4 62 28 124 47
124 7 0 8 -7 4 -17z m-1151 -43 c48 -5 91 -11 94 -14 3 -3 -3 -29 -12 -58 -40
-122 -26 -295 39 -496 41 -127 43 -116 -41 -258 -103 -175 -169 -353 -224
-600 -29 -127 -43 -174 -56 -174 -3 0 -19 7 -35 16 -41 20 -63 12 -55 -21 5
-21 1 -29 -29 -46 -51 -30 -65 -63 -58 -136 5 -55 3 -67 -22 -108 -49 -85
-165 -137 -306 -139 -62 -1 -81 3 -98 18 -12 11 -21 25 -21 33 0 37 49 100
150 194 82 77 121 121 147 169 20 36 53 92 74 125 70 111 133 268 214 538 25
83 50 179 54 212 22 163 -43 369 -198 624 -56 92 -59 105 -33 120 22 13 297
14 416 1z m559 0 c3 -3 -6 -77 -19 -165 -30 -207 -47 -424 -39 -500 3 -33 12
-107 20 -165 24 -178 24 -181 3 -174 -15 4 -18 0 -18 -26 0 -47 -16 -68 -60
-80 -54 -14 -70 -48 -70 -143 0 -60 -4 -80 -23 -108 -48 -71 -153 -114 -263
-107 -35 2 -69 9 -75 15 -14 14 31 83 111 169 41 44 67 85 90 140 86 205 95
260 94 554 0 274 -16 381 -70 477 -41 73 -38 98 9 112 32 10 301 10 310 1z
m2266 -151 c9 -57 2 -92 -10 -49 -8 30 -11 116 -4 108 3 -3 10 -30 14 -59z
m-872 24 c5 -12 -11 -33 -55 -74 -70 -66 -119 -96 -134 -81 -12 12 29 60 104
123 64 53 75 58 85 32z m-1756 -55 c99 -108 118 -564 34 -788 -10 -25 -30 -80
-45 -123 -16 -43 -41 -95 -56 -115 -48 -63 -137 -143 -166 -149 -23 -4 -28
-11 -28 -34 0 -16 -4 -29 -10 -29 -15 0 -13 17 19 141 39 158 101 309 166 408
30 46 59 100 65 120 15 56 12 130 -10 212 -53 194 -64 333 -31 373 19 23 28
20 62 -16z m1464 -19 c9 -16 12 -29 7 -29 -5 0 -16 16 -25 36 -20 42 -4 36 18
-7z m791 -43 c-14 -31 -28 -56 -31 -56 -8 0 3 34 28 89 30 64 33 34 3 -33z
m1011 -48 c-30 -62 -66 -123 -79 -136 l-25 -22 5 30 c2 17 -1 37 -8 45 -16 19
-6 45 19 45 22 0 64 46 104 115 51 86 41 38 -16 -77z m-246 45 c52 -60 110
-156 107 -178 -2 -14 -10 -20 -28 -20 -22 0 -32 14 -77 100 -70 134 -71 176
-2 98z m-431 -44 c0 -11 11 -45 24 -77 16 -39 29 -102 40 -201 9 -80 18 -146
20 -148 1 -2 51 19 109 47 108 51 147 61 147 36 0 -14 -78 -59 -178 -100 -55
-23 -68 -25 -103 -16 -26 7 -43 19 -48 33 -5 12 -12 114 -16 226 -4 112 -9
211 -13 219 -3 10 -1 13 6 8 7 -4 12 -16 12 -27z m-415 -158 c-43 -125 -81
-210 -102 -233 -17 -20 -58 -24 -68 -8 -3 6 20 68 51 140 53 119 59 129 80
124 20 -5 27 1 46 40 12 25 23 44 25 42 2 -2 -13 -49 -32 -105z m965 -24 c0
-2 -18 -21 -40 -42 -22 -21 -40 -33 -40 -26 0 13 59 71 72 71 5 0 8 -1 8 -3z
m-3394 -1022 c3 -13 12 -30 20 -36 13 -10 10 -15 -13 -30 -15 -11 -39 -19 -52
-19 -21 0 -23 3 -16 37 13 72 48 99 61 48z m4434 -100 c0 -3 -15 -14 -32 -25
-55 -33 -119 -22 -82 14 14 15 114 24 114 11z"/>
<path d="M7654 6619 c-4 -7 1 -16 10 -21 10 -6 16 -23 17 -46 l1 -37 10 42 c6
23 8 49 5 57 -7 19 -33 21 -43 5z"/>
<path d="M7546 5245 c11 -27 157 -115 170 -102 11 11 -17 38 -80 79 -61 40
-100 50 -90 23z"/>
<path d="M8130 5088 c0 -7 16 -26 36 -41 19 -16 39 -40 45 -54 11 -29 43 -28
46 2 3 22 -16 48 -61 83 -31 24 -66 29 -66 10z"/>
<path d="M6615 4174 c-7 -69 1 -181 15 -189 17 -10 26 140 14 218 -10 56 -21
45 -29 -29z"/>
<path d="M6676 4027 c-9 -35 -7 -225 3 -231 14 -9 21 33 21 141 0 97 -11 139
-24 90z"/>
<path d="M480 5174 c-68 -64 -85 -89 -70 -99 16 -10 150 138 137 151 -3 4 -34
-20 -67 -52z"/>
<path d="M1200 5214 c0 -4 29 -51 65 -103 68 -102 132 -230 160 -322 20 -63
15 -100 -10 -79 -19 15 -54 110 -67 180 -12 65 -25 93 -39 84 -7 -4 -8 -23 -4
-50 10 -70 -9 -51 -48 49 -35 88 -37 90 -31 42 12 -102 75 -245 108 -245 7 0
19 -13 26 -29 16 -40 64 -84 87 -79 83 16 -89 435 -222 540 -14 11 -25 16 -25
12z"/>
<path d="M1010 5144 c0 -22 146 -167 160 -159 5 3 10 9 10 13 0 13 -79 104
-116 133 -42 33 -54 36 -54 13z"/>
<path d="M1337 5114 c-3 -4 11 -27 33 -53 45 -54 87 -148 125 -281 31 -108 44
-137 46 -105 2 36 -2 69 -17 119 -16 58 -17 66 -5 66 30 0 64 -145 85 -363 11
-114 20 -160 39 -201 30 -65 114 -156 145 -156 32 0 28 32 -8 58 -46 35 -60
98 -71 332 -5 112 -12 206 -14 209 -14 13 -20 -26 -25 -177 -3 -92 -9 -156
-13 -142 -3 14 -16 90 -28 169 -32 226 -84 358 -175 452 -38 39 -107 82 -117
73z"/>
<path d="M1670 5105 c0 -10 15 -66 34 -124 19 -59 40 -147 46 -196 14 -119 19
-137 30 -130 16 10 12 204 -5 268 -26 98 -105 236 -105 182z"/>
<path d="M2050 4868 c0 -8 20 -64 45 -124 24 -61 54 -150 65 -200 28 -118 40
-151 52 -130 18 33 -63 320 -117 412 -27 47 -45 63 -45 42z"/>
<path d="M2731 4826 c-10 -12 -8 -37 7 -123 11 -59 26 -121 33 -138 13 -29 14
-28 17 39 4 83 -14 206 -32 224 -10 11 -15 10 -25 -2z"/>
<path d="M2380 4762 c24 -49 57 -210 66 -320 7 -84 19 -112 29 -69 19 76 -61
411 -102 424 -7 3 -5 -11 7 -35z"/>
<path d="M2216 4673 c8 -48 14 -126 14 -173 0 -144 20 -210 34 -116 9 56 -10
283 -28 332 -24 70 -33 49 -20 -43z"/>
<path d="M2526 4560 c8 -166 14 -214 27 -201 7 7 7 47 -1 141 -15 166 -33 208
-26 60z"/>
<path d="M1824 4573 c-14 -121 -9 -215 15 -268 25 -56 47 -52 31 5 -6 19 -10
84 -10 145 0 181 -21 249 -36 118z"/>
<path d="M1884 4553 c-15 -78 25 -366 55 -396 14 -14 15 64 1 113 -8 27 -21
163 -30 318 0 1 -4 2 -10 2 -5 0 -12 -17 -16 -37z"/>
<path d="M2005 4515 c-13 -91 7 -351 28 -373 16 -15 17 -14 17 15 0 18 -5 54
-10 80 -6 26 -14 113 -18 193 -8 136 -9 141 -17 85z"/>
<path d="M2073 4307 c6 -144 25 -231 26 -122 1 106 -12 255 -22 255 -7 0 -8
-47 -4 -133z"/>
<path d="M11505 4530 c-47 -6 -48 -6 -21 -14 35 -11 306 1 339 14 26 10 -238
11 -318 0z"/>
<path d="M12072 4505 c37 -8 77 -19 87 -25 24 -12 61 -13 61 -1 0 11 -72 27
-155 35 l-60 5 67 -14z"/>
<path d="M10042 4460 c43 -13 146 -22 159 -15 24 15 -17 25 -101 24 -59 -1
-77 -3 -58 -9z"/>
<path d="M10298 4463 c12 -2 32 -2 45 0 12 2 2 4 -23 4 -25 0 -35 -2 -22 -4z"/>
<path d="M10548 4443 c23 -2 59 -2 80 0 20 2 1 4 -43 4 -44 0 -61 -2 -37 -4z"/>
<path d="M11903 4434 c-4 -12 4 -26 25 -46 42 -36 64 -37 29 0 -15 15 -27 33
-27 39 0 20 -20 25 -27 7z"/>
<path d="M11568 4423 c12 -2 32 -2 45 0 12 2 2 4 -23 4 -25 0 -35 -2 -22 -4z"/>
<path d="M12202 4378 c5 -14 77 -32 87 -22 3 3 -3 12 -13 20 -25 18 -79 19
-74 2z"/>
<path d="M11683 4329 c-14 -5 -13 -7 8 -12 13 -4 41 -7 62 -7 30 0 40 -5 49
-25 6 -14 19 -25 30 -25 11 0 18 -7 18 -20 0 -18 6 -20 53 -19 28 0 86 4 127
8 55 6 86 4 115 -5 46 -16 171 -19 180 -4 12 19 -17 52 -63 73 -36 15 -81 22
-187 29 -185 11 -370 15 -392 7z"/>
<path d="M9447 4300 c-91 -3 -168 -8 -172 -12 -12 -12 5 -27 43 -37 20 -6 142
-15 271 -21 129 -6 238 -13 243 -16 12 -8 78 7 78 17 0 5 -22 9 -49 9 -99 0
-147 26 -75 41 85 17 -83 27 -339 19z"/>
<path d="M9988 4300 c-77 -9 -99 -18 -75 -32 9 -5 72 -4 149 2 73 5 188 10
255 10 114 0 161 10 110 24 -31 8 -358 5 -439 -4z"/>
<path d="M9733 4043 c81 -2 213 -2 295 0 81 1 14 3 -148 3 -162 0 -229 -2
-147 -3z"/>
<path d="M9143 3673 c9 -2 23 -2 30 0 6 3 -1 5 -18 5 -16 0 -22 -2 -12 -5z"/>
<path d="M9308 3653 c17 -2 47 -2 65 0 17 2 3 4 -33 4 -36 0 -50 -2 -32 -4z"/>
<path d="M11885 4780 c-4 -6 7 -10 27 -10 25 0 29 3 18 10 -19 13 -37 13 -45
0z"/>
<path d="M11460 4762 c0 -17 55 -34 125 -39 92 -7 77 10 -29 31 -90 18 -96 19
-96 8z"/>
<path d="M11840 4720 c0 -19 70 -42 148 -47 96 -8 90 10 -11 31 -130 27 -137
28 -137 16z"/>
<path d="M8962 4700 c0 -19 2 -27 5 -17 2 9 2 25 0 35 -3 9 -5 1 -5 -18z"/>
<path d="M8941 3295 c-13 -92 -15 -203 -2 -190 9 10 27 265 18 265 -2 0 -10
-34 -16 -75z"/>
<path d="M9158 2863 c12 -2 30 -2 40 0 9 3 -1 5 -23 4 -22 0 -30 -2 -17 -4z"/>
<path d="M7545 2820 c-114 -9 254 -9 410 0 102 5 86 6 -105 6 -124 0 -261 -3
-305 -6z"/>
<path d="M8242 2823 c-33 -6 -16 -23 23 -23 41 0 67 9 59 21 -5 9 -40 10 -82
2z"/>
<path d="M5443 2813 c9 -2 23 -2 30 0 6 3 -1 5 -18 5 -16 0 -22 -2 -12 -5z"/>
<path d="M8447 2810 c4 -5 82 -11 173 -14 114 -3 145 -2 100 4 -96 12 -283 19
-273 10z"/>
<path d="M5638 2793 c12 -2 32 -2 45 0 12 2 2 4 -23 4 -25 0 -35 -2 -22 -4z"/>
<path d="M6168 2773 c18 -2 45 -2 60 0 15 2 0 4 -33 4 -33 0 -45 -2 -27 -4z"/>
<path d="M6727 2773 c18 -2 50 -2 70 0 21 2 7 4 -32 4 -38 0 -55 -2 -38 -4z"/>
<path d="M9178 2773 c18 -2 45 -2 60 0 15 2 0 4 -33 4 -33 0 -45 -2 -27 -4z"/>
<path d="M7863 2743 c9 -2 23 -2 30 0 6 3 -1 5 -18 5 -16 0 -22 -2 -12 -5z"/>
<path d="M6970 4621 c-24 -8 -24 -8 10 -15 64 -12 264 -26 380 -26 63 0 146
-5 184 -10 75 -11 106 -7 106 15 0 21 -19 23 -220 29 -102 4 -241 8 -310 11
-69 2 -136 0 -150 -4z"/>
<path d="M6956 4421 c13 -14 195 -39 363 -50 113 -8 148 -14 163 -28 22 -20
168 -33 168 -16 0 37 -89 63 -300 87 -149 18 -410 22 -394 7z"/>
<path d="M6830 4342 c0 -9 101 -32 138 -32 43 0 23 27 -24 34 -64 8 -114 8
-114 -2z"/>
<path d="M6870 4281 c-60 -11 -16 -23 109 -28 122 -6 240 3 225 17 -12 10
-289 20 -334 11z"/>
<path d="M6980 4211 l-35 -7 35 -7 c122 -22 812 -16 773 7 -21 13 -715 19
-773 7z"/>
<path d="M6880 4141 c0 -14 39 -23 86 -19 61 5 45 23 -23 26 -39 2 -63 -1 -63
-7z"/>
<path d="M7062 4139 c8 -24 65 -29 378 -39 168 -5 332 -13 365 -18 33 -6 112
-13 175 -17 63 -4 130 -13 149 -21 44 -18 182 -33 341 -36 107 -3 125 -1 128
13 2 14 -22 17 -186 25 -169 9 -190 12 -208 30 -19 19 -38 21 -190 27 -93 4
-196 12 -229 18 -33 6 -166 12 -295 13 -129 1 -279 6 -334 11 -82 7 -98 6 -94
-6z"/>
<path d="M6790 4065 c0 -23 37 -36 113 -42 71 -5 127 7 127 26 0 11 -46 18
-162 25 -62 4 -78 2 -78 -9z"/>
<path d="M7084 3834 c-15 -6 4 -51 26 -60 8 -4 107 -8 220 -10 226 -3 206 9
-35 22 -107 5 -134 9 -112 16 15 5 27 13 27 18 0 15 -97 26 -126 14z"/>
<path d="M5130 2888 c0 -68 18 -137 31 -117 20 32 3 169 -22 169 -5 0 -9 -24
-9 -52z"/>
<path d="M2601 3557 c-11 -18 -47 -89 -79 -157 -46 -98 -69 -134 -106 -168
-69 -63 -213 -153 -279 -174 -62 -19 -132 -24 -141 -10 -3 5 -44 12 -90 15
-106 7 -162 24 -186 54 -10 13 -28 23 -40 23 -21 0 -22 3 -16 40 5 31 3 40 -8
40 -21 0 -39 -71 -27 -103 12 -30 85 -83 155 -110 106 -42 324 -19 458 49 86
43 225 141 251 176 69 92 172 358 138 358 -5 0 -19 -15 -30 -33z"/>
<path d="M1645 3013 c4 -10 10 -28 13 -41 6 -28 51 -63 125 -97 64 -29 167
-45 167 -26 0 13 -3 14 -84 30 -62 11 -199 70 -180 78 6 2 52 -10 102 -27 93
-31 189 -43 194 -25 2 5 -33 15 -77 22 -98 15 -186 47 -216 79 -27 29 -55 33
-44 7z"/>
<path d="M11064 4165 c-107 -19 -181 -43 -269 -85 -78 -38 -268 -173 -312
-221 -84 -93 -296 -480 -366 -669 -222 -599 -75 -1465 318 -1879 178 -187 320
-242 630 -242 184 0 288 16 380 60 281 131 463 362 624 793 118 312 154 539
154 953 0 141 -4 236 -12 265 -6 25 -20 97 -30 160 -19 117 -63 276 -101 365
-58 136 -213 304 -354 384 -196 111 -447 155 -662 116z m129 -442 c4 -219 7
-470 7 -558 0 -88 3 -177 6 -197 6 -33 10 -38 35 -38 20 0 30 6 35 23 42 137
329 978 344 1007 11 21 25 42 31 46 18 11 39 -25 39 -64 0 -50 -230 -730 -328
-967 l-29 -70 -84 -3 c-72 -2 -88 0 -102 16 -26 29 -35 162 -42 627 -3 237 -8
463 -11 503 l-6 72 50 0 49 0 6 -397z m233 353 c90 -31 122 -46 127 -61 5 -12
-52 -197 -71 -230 -11 -19 -11 -19 -12 -1 0 11 -21 39 -47 63 l-48 43 35 0
c41 0 68 14 51 25 -7 3 -64 9 -128 12 l-115 6 6 51 c3 28 6 68 6 90 l0 39 64
-7 c35 -3 94 -17 132 -30z m-406 -2 c13 -34 13 -241 0 -249 -6 -4 -10 20 -10
64 0 97 -10 106 -130 115 -57 5 -89 11 -83 17 16 16 166 78 191 78 15 1 26 -7
32 -25z m-296 -133 c6 -9 -26 -21 -58 -21 -15 0 -16 3 -6 15 14 16 56 20 64 6z
m1075 -128 c29 -32 50 -64 49 -73 -2 -8 -21 -20 -43 -26 l-40 -12 45 -1 c86
-2 137 -57 110 -120 -27 -67 -120 -112 -160 -79 -19 16 -63 78 -59 82 2 2 31
11 64 19 l60 17 -50 -5 c-27 -2 -67 -7 -87 -11 -38 -7 -38 -6 -38 28 0 37 52
201 71 224 18 21 24 18 78 -43z m-1132 -133 c171 -345 312 -636 318 -660 4
-14 21 -51 36 -82 32 -63 35 -88 17 -118 -19 -30 -1 -36 50 -16 119 46 155 57
164 48 10 -10 -37 -77 -109 -155 -44 -47 -44 -48 -38 -105 5 -40 3 -53 -4 -42
-6 8 -13 39 -17 68 -6 48 -8 52 -23 39 -9 -8 -24 -17 -35 -21 -16 -6 -17 -14
-12 -89 6 -68 5 -79 -6 -62 -8 13 -12 62 -13 142 0 68 -2 123 -4 123 -2 0 -9
-7 -15 -16 -13 -18 -46 -9 -46 12 0 8 11 19 25 24 14 5 25 13 25 18 0 25 -38
108 -201 443 -183 377 -259 541 -259 562 0 22 32 58 48 55 11 -2 48 -66 99
-168z m289 125 c4 -8 16 -15 28 -15 11 0 27 -4 35 -9 22 -14 -6 -25 -77 -31
-34 -3 -63 -9 -64 -15 -1 -5 26 -15 61 -21 69 -13 95 -29 71 -44 -8 -5 -32
-10 -53 -10 -51 0 -44 -23 9 -30 78 -11 81 -42 5 -64 l-46 -13 42 -7 c22 -4
49 -16 58 -27 29 -31 5 -46 -80 -51 -41 -3 -81 -11 -90 -18 -11 -10 -19 -10
-27 -2 -17 17 -2 40 28 44 43 5 51 29 23 67 -17 23 -24 48 -27 95 -5 72 7 102
45 117 15 6 23 15 20 23 -3 8 -3 17 0 20 12 11 34 6 39 -9z m297 -108 c3 -8 1
-20 -4 -28 -6 -10 -9 -7 -9 14 0 29 5 35 13 14z m-748 -57 c4 -6 -11 -18 -34
-27 -23 -9 -41 -20 -41 -24 0 -4 24 -9 53 -11 l52 -3 43 -88 c24 -49 41 -91
38 -94 -3 -4 -69 -9 -146 -12 -149 -7 -170 -14 -150 -50 14 -26 6 -41 -23 -41
-34 0 -5 -21 34 -25 49 -4 69 -15 69 -36 0 -18 -6 -19 -102 -13 -57 4 -105 9
-108 11 -2 2 16 42 40 88 l45 85 105 0 c106 0 150 6 150 20 0 4 -22 10 -50 14
-85 11 -135 76 -116 151 12 46 121 88 141 55z m310 -29 c3 -5 -3 -12 -13 -16
-22 -6 -52 3 -52 16 0 12 57 12 65 0z m601 -54 c-9 -47 -42 -87 -72 -87 -29 0
-30 9 -4 61 43 84 90 100 76 26z m628 -76 c-30 -66 -537 -602 -596 -631 -40
-19 -46 -5 -19 45 59 112 482 569 575 622 28 16 54 -7 40 -36z m-430 -37 c4
-10 0 -22 -10 -29 -15 -10 -13 -15 17 -39 l34 -27 -35 6 c-55 11 -64 25 -46
69 16 39 30 46 40 20z m194 -6 c-7 -19 -38 -22 -38 -4 0 10 9 16 21 16 12 0
19 -5 17 -12z m-464 -27 c8 -12 -29 -129 -62 -201 -17 -38 -26 -49 -29 -37 -3
10 0 23 5 30 7 8 6 18 -4 31 -20 28 -17 83 7 126 26 45 70 73 83 51z m-329
-14 c28 -21 9 -37 -44 -37 -55 0 -64 6 -50 31 12 23 66 26 94 6z m-369 -78
c20 -17 17 -26 -13 -43 l-28 -15 33 -1 c54 0 99 -65 50 -72 -34 -5 -33 -26 3
-35 39 -11 59 -37 41 -55 -22 -22 -82 19 -105 72 -20 46 -83 120 -102 120 -6
0 -20 6 -31 14 -18 14 -18 15 6 25 30 13 126 7 146 -10z m378 -71 c3 -40 2
-89 -2 -108 l-8 -35 -13 24 c-7 13 -15 46 -17 73 -1 28 -10 61 -19 74 -19 29
-19 32 3 37 47 13 49 10 56 -65z m1004 37 c2 -15 -2 -32 -10 -36 -17 -12 -88
-11 -88 0 0 14 71 72 83 68 7 -2 13 -16 15 -32z m-387 15 c38 -21 21 -33 -36
-27 -64 6 -84 15 -64 28 19 12 76 11 100 -1z m-36 -69 c8 -14 -28 -31 -66 -31
l-32 0 23 -24 c36 -39 15 -70 -31 -46 -49 27 0 110 65 110 19 0 37 -4 41 -9z
m435 -31 c0 -12 -77 -33 -92 -24 -18 11 21 34 59 34 18 0 33 -4 33 -10z
m-1573 -24 c14 -13 -12 -21 -70 -21 -74 0 -109 11 -87 26 16 10 146 6 157 -5z
m-109 -85 c136 -69 519 -274 557 -298 20 -13 20 -13 -4 -33 -13 -11 -33 -20
-46 -20 -23 0 -648 302 -677 328 -32 27 -18 92 20 92 8 0 75 -31 150 -69z
m149 22 c7 -21 -36 -37 -64 -24 -21 10 -23 14 -12 27 14 17 70 15 76 -3z
m1316 -5 c6 -20 9 -21 115 -15 l109 6 13 -58 c16 -75 11 -95 -21 -99 -33 -4
-54 20 -40 45 5 11 6 25 2 32 -13 20 -88 31 -172 24 -93 -7 -106 4 -58 53 39
40 45 41 52 12z m-1153 -86 c3 -2 -1 -7 -7 -9 -7 -3 -13 -11 -13 -19 0 -8 -2
-14 -5 -14 -12 0 -95 45 -95 51 0 8 112 0 120 -9z m1145 -22 c0 -11 -16 -17
-63 -21 -98 -9 -101 -27 -6 -35 33 -3 66 -8 74 -11 24 -8 -17 -21 -70 -22 -57
-1 -122 -19 -115 -32 6 -9 74 -5 135 7 54 11 1 -15 -101 -50 -170 -58 -187
-47 -86 57 74 76 159 129 202 125 19 -2 30 -9 30 -18z m-1426 -123 c124 -62
226 -118 229 -125 3 -9 -19 -12 -81 -12 -76 0 -87 2 -113 25 -16 14 -65 48
-109 75 -44 26 -91 60 -104 74 -14 14 -32 26 -41 26 -19 0 -40 19 -40 37 0 7
8 13 18 12 9 0 118 -51 241 -112z m1739 27 c55 -38 25 -56 -243 -138 -331
-102 -365 -107 -365 -55 0 30 58 54 310 133 143 44 245 73 265 75 6 1 21 -6
33 -15z m-1994 -109 c10 -8 43 -19 72 -25 82 -17 67 -40 -26 -40 -69 0 -80 6
-80 46 0 37 6 40 34 19z m1296 -43 c90 -90 76 -249 -29 -329 -68 -52 -128 -41
-182 35 -64 91 -65 185 -1 271 30 40 72 60 131 61 37 0 49 -5 81 -38z m640
-69 c0 -55 -17 -204 -37 -316 l-16 -99 -29 6 c-47 9 -184 72 -320 147 -137 75
-148 89 -105 130 53 50 223 116 388 149 126 25 119 26 119 -17z m-1652 -77 c3
-12 -1 -17 -10 -14 -7 3 -15 13 -16 22 -3 12 1 17 10 14 7 -3 15 -13 16 -22z
m434 -43 c26 -23 22 -50 -9 -67 -22 -11 -274 -92 -710 -227 -18 -6 -37 -8 -43
-4 -5 3 -10 30 -10 59 l0 53 313 87 c171 48 332 94 357 101 61 18 80 18 102
-2z m-642 -13 c46 -5 110 -10 142 -10 32 0 58 -4 58 -9 0 -11 -73 -41 -101
-41 -11 0 -54 -11 -95 -25 -88 -30 -121 -32 -127 -7 -23 83 -18 115 16 107 12
-3 60 -9 107 -15z m748 -40 c-2 -8 -11 -16 -21 -18 -13 -3 -17 3 -17 26 0 16
3 32 7 36 10 10 34 -25 31 -44z m644 -96 c155 -56 427 -208 457 -255 16 -26 5
-59 -20 -59 -23 0 -506 244 -545 275 -23 18 -25 24 -15 43 15 28 34 28 123 -4z
m-564 -50 c-8 -7 -58 44 -58 60 0 6 14 -4 32 -21 18 -18 29 -35 26 -39z m-133
-14 c3 -5 2 -16 -2 -24 -13 -22 -524 -575 -592 -639 -51 -49 -64 -57 -76 -47
-8 7 -15 27 -15 45 0 27 15 50 84 127 168 188 551 548 583 548 6 0 15 -4 18
-10z m-195 -14 c0 -24 -514 -565 -526 -554 -2 3 -21 52 -41 109 -27 77 -36
121 -37 171 -2 112 25 129 339 223 105 31 195 58 200 60 27 9 65 4 65 -9z
m594 -15 l49 -6 35 -85 c42 -99 245 -502 321 -637 54 -97 77 -119 58 -57 -10
33 -9 38 12 55 13 11 35 19 50 19 l26 0 -25 20 c-25 20 -25 20 -5 36 27 21 69
14 73 -11 4 -27 -81 -155 -121 -183 -40 -26 -88 -29 -109 -4 -8 9 -28 51 -43
92 -36 96 -202 423 -285 560 -77 129 -116 179 -146 191 -13 4 -24 13 -24 18 0
9 19 8 134 -8z m356 -112 c210 -106 270 -148 270 -192 0 -55 -117 -312 -174
-382 l-24 -30 -157 316 c-86 174 -158 333 -162 353 -5 34 -4 36 21 36 14 0
116 -45 226 -101z m-606 65 c4 -11 0 -15 -16 -12 -12 2 -23 9 -26 16 -6 18 35
15 42 -4z m-14 -52 c0 -37 -161 -575 -241 -802 -71 -204 -130 -283 -160 -216
-10 21 -6 40 24 123 20 54 61 177 91 273 72 228 207 595 229 620 22 26 57 26
57 2z m150 -73 c26 -187 53 -768 43 -914 -7 -95 -18 -121 -50 -111 -42 13 -45
48 -50 552 -6 482 -6 482 16 505 11 12 21 27 21 33 0 30 12 -11 20 -65z m-365
-140 c-138 -428 -157 -479 -178 -494 -13 -9 -44 -15 -77 -15 -30 0 -92 -8
-138 -17 -85 -18 -104 -15 -125 19 -6 8 -7 26 -4 40 11 42 560 658 574 644 2
-2 -21 -82 -52 -177z m554 -124 c61 -126 111 -242 111 -256 0 -32 -14 -39 -83
-40 -92 -1 -100 -18 -10 -18 132 -1 193 -38 193 -117 0 -47 -155 -175 -261
-215 l-47 -18 -7 103 c-10 151 -18 140 103 144 62 2 102 7 102 13 0 7 -33 9
-95 7 -53 -1 -98 1 -103 7 -23 24 -45 653 -23 630 5 -6 59 -113 120 -240z
m-325 -82 c3 -104 8 -241 10 -305 l4 -118 -46 0 c-26 0 -76 -6 -110 -14 -56
-11 -65 -11 -69 2 -11 27 14 47 76 60 79 18 80 35 1 26 -46 -5 -60 -4 -60 7 0
23 172 529 180 529 4 0 11 -84 14 -187z m936 77 c0 -5 -9 -10 -20 -10 -11 0
-20 5 -20 10 0 6 9 10 20 10 11 0 20 -4 20 -10z m0 -59 c0 -19 -30 -32 -66
-29 -36 3 -37 4 -20 21 18 17 86 24 86 8z m-69 -71 c29 -16 24 -40 -8 -40 -37
0 -55 13 -47 33 7 19 27 22 55 7z m-1286 -280 c8 -12 -50 -189 -70 -216 -13
-18 -19 -14 -104 71 -87 86 -102 107 -82 119 45 28 243 48 256 26z m1095 -63
c-185 -147 -409 -282 -432 -259 -17 17 1 32 41 32 30 0 44 7 72 36 18 20 58
50 87 66 30 17 56 36 59 43 2 7 17 15 32 18 15 3 51 22 80 41 49 34 95 51 61
23z m-686 -53 c26 -10 19 -24 -21 -41 l-38 -17 35 -5 c35 -6 35 -6 38 -65 l3
-58 -108 4 c-115 4 -166 21 -178 57 -3 11 0 29 7 41 30 49 206 105 262 84z
m-20 -230 c34 -13 2 -24 -69 -24 -68 0 -103 11 -73 23 19 8 124 8 142 1z"/>
<path d="M11363 4031 c-54 -9 -63 -18 -28 -27 26 -6 155 2 164 12 15 14 -78
25 -136 15z"/>
<path d="M10452 3489 c26 -15 90 -16 95 -1 3 9 -11 12 -54 12 -43 -1 -54 -3
-41 -11z"/>
<path d="M11265 3340 c-8 -13 3 -30 20 -30 20 0 30 21 14 31 -18 11 -26 11
-34 -1z"/>
<path d="M11298 2729 c-108 -57 -120 -217 -19 -258 78 -33 131 18 131 126 0
35 5 72 12 82 9 15 9 25 0 45 -9 21 -18 26 -49 26 -21 -1 -55 -10 -75 -21z
m60 -91 c16 -16 15 -60 -1 -83 -22 -28 -67 -13 -67 23 0 31 25 72 44 72 6 0
17 -5 24 -12z"/>
<path d="M10446 1558 c-79 -9 -137 -27 -88 -28 30 0 225 29 231 35 6 7 -49 4
-143 -7z"/>
<path d="M11360 1420 c-31 -7 -29 -7 20 -8 30 -1 73 3 95 7 38 8 37 9 -20 9
-33 -1 -76 -4 -95 -8z"/>
<path d="M10875 1283 c-11 -3 -24 -9 -29 -14 -10 -9 57 -1 89 12 16 6 15 8
-10 7 -16 0 -39 -2 -50 -5z"/>
<path d="M2290 4033 c0 -30 43 -83 57 -69 8 8 -23 70 -44 87 -10 9 -13 5 -13
-18z"/>
<path d="M2378 4034 c-11 -10 3 -34 19 -34 8 0 13 7 11 17 -3 18 -20 27 -30
17z"/>
<path d="M12133 4090 c49 -15 157 -23 157 -12 0 17 -28 22 -108 21 -58 -1 -70
-3 -49 -9z"/>
<path d="M12203 3983 c-27 -5 -30 -31 -5 -40 9 -3 24 -15 33 -26 17 -20 17
-20 28 1 6 12 20 22 30 22 22 0 46 26 32 34 -14 9 -92 15 -118 9z"/>
<path d="M893 3540 c-42 -25 -59 -81 -38 -124 8 -16 15 -42 15 -58 0 -39 25
-36 46 5 9 17 32 49 50 70 35 38 44 67 22 67 -7 0 -22 -12 -34 -27 -14 -17
-26 -24 -37 -20 -22 8 -22 55 0 79 24 26 12 30 -24 8z"/>
<path d="M6886 3511 c-42 -16 13 -23 316 -36 172 -8 330 -17 351 -21 41 -7 53
10 14 20 -35 8 -231 24 -442 36 -215 11 -213 11 -239 1z"/>
<path d="M7938 3463 c-23 -6 -23 -20 1 -33 46 -24 104 -1 66 27 -19 13 -35 15
-67 6z"/>
<path d="M6976 3432 c-11 -18 14 -25 95 -30 89 -5 167 5 134 18 -35 13 -222
23 -229 12z"/>
<path d="M8276 3421 c-9 -14 47 -21 159 -21 112 0 168 7 159 21 -3 5 -74 9
-159 9 -85 0 -156 -4 -159 -9z"/>
<path d="M7476 3400 c12 -5 75 -11 140 -15 66 -3 178 -13 250 -21 111 -12 264
-20 684 -36 51 -2 65 0 65 11 0 24 -47 30 -294 36 -130 4 -315 13 -411 21
-192 15 -469 18 -434 4z"/>
<path d="M6987 3374 c-10 -11 3 -24 24 -24 10 0 19 7 19 15 0 15 -31 21 -43 9z"/>
<path d="M7032 3298 c5 -15 48 -18 48 -3 0 6 -11 11 -26 13 -18 3 -25 0 -22
-10z"/>
<path d="M9567 3227 c-20 -14 -70 -141 -60 -151 4 -3 55 -6 113 -6 116 0 135
8 128 52 -3 20 -12 25 -63 34 -48 10 -53 12 -25 13 60 2 112 20 108 39 -2 9
-14 19 -28 23 -44 12 -155 10 -173 -4z"/>
<path d="M9268 3213 c23 -2 59 -2 80 0 20 2 1 4 -43 4 -44 0 -61 -2 -37 -4z"/>
<path d="M5886 1867 c-22 -33 -47 -109 -42 -124 8 -19 30 -16 51 7 10 11 24
20 32 20 37 0 31 84 -7 108 -17 10 -22 9 -34 -11z"/>
<path d="M5415 725 c-21 -9 -53 -12 -106 -8 -51 4 -78 2 -83 -5 -4 -7 4 -14
21 -18 15 -3 34 -7 41 -10 21 -6 154 15 169 27 33 28 8 36 -42 14z"/>
<path d="M6300 2455 c0 -30 26 -85 40 -85 14 0 12 50 -3 79 -17 35 -37 38 -37
6z"/>
<path d="M6043 1188 c2 -7 16 -13 32 -13 16 0 30 6 33 13 2 8 -8 12 -33 12
-25 0 -35 -4 -32 -12z"/>
<path d="M7822 7294 c-24 -11 0 -24 44 -24 32 0 44 4 42 13 -5 12 -63 20 -86
11z"/>
<path d="M7854 7235 c-8 -21 4 -35 32 -35 29 0 32 25 5 40 -26 13 -31 13 -37
-5z"/>
<path d="M6656 5801 c-22 -24 -13 -61 14 -61 47 0 92 42 75 70 -11 17 -71 11
-89 -9z"/>
<path d="M6744 5735 c-10 -8 -29 -15 -41 -15 -12 0 -25 -4 -28 -10 -8 -13 50
-12 99 3 22 7 41 18 44 25 5 17 -50 16 -74 -3z"/>
<path d="M7730 5716 c0 -28 14 -35 23 -12 3 8 -1 20 -9 26 -12 10 -14 8 -14
-14z"/>
<path d="M9710 5041 c37 -33 60 -40 60 -17 0 20 -22 35 -61 42 l-34 5 35 -30z"/>
<path d="M9702 4953 c5 -26 38 -29 38 -4 0 15 -6 21 -21 21 -14 0 -19 -5 -17
-17z"/>
<path d="M10882 4953 c-35 -14 -36 -73 -1 -73 13 0 19 7 19 24 0 15 7 26 20
29 11 3 20 10 20 16 0 11 -34 14 -58 4z"/>
<path d="M12515 4638 c-9 -22 -2 -68 10 -71 14 -3 19 63 6 76 -7 7 -12 5 -16
-5z"/>
<path d="M12603 4565 c0 -27 2 -38 4 -22 2 15 2 37 0 50 -2 12 -4 0 -4 -28z"/>
<path d="M12512 4145 c0 -16 2 -22 5 -12 2 9 2 23 0 30 -3 6 -5 -1 -5 -18z"/>
<path d="M12492 3985 c0 -16 2 -22 5 -12 2 9 2 23 0 30 -3 6 -5 -1 -5 -18z"/>
<path d="M12452 3130 c-33 -14 -18 -30 26 -30 35 0 72 14 62 23 -12 11 -67 15
-88 7z"/>
<path d="M12482 2899 c-35 -13 -18 -29 20 -18 43 12 59 29 28 28 -14 0 -35 -4
-48 -10z"/>
<path d="M1780 2725 c-7 -8 -15 -36 -18 -61 -4 -37 -2 -46 9 -42 8 3 16 24 19
49 3 24 9 50 13 57 11 17 -8 15 -23 -3z"/>
<path d="M1917 2666 c-9 -9 -18 -24 -21 -34 -11 -38 -26 -138 -26 -174 0 -31
3 -38 20 -38 17 0 20 7 21 53 0 28 8 84 19 122 19 72 14 98 -13 71z"/>
<path d="M2362 2613 c-24 -57 -37 -103 -28 -103 7 0 49 88 61 128 12 41 -12
22 -33 -25z"/>
<path d="M2536 2618 c-3 -13 -6 -39 -6 -58 0 -19 -9 -50 -20 -67 -32 -54 -53
-38 -30 23 14 36 3 45 -20 17 -26 -32 -44 -30 -36 5 20 81 20 79 1 60 -20 -18
-56 -118 -48 -131 3 -4 16 -12 29 -17 13 -5 24 -16 24 -25 0 -8 16 -23 37 -32
l36 -18 39 -155 c22 -85 61 -220 89 -299 36 -107 49 -159 49 -201 0 -105 42
-292 85 -385 36 -75 54 -156 67 -292 14 -151 1 -276 -40 -406 -17 -51 -35
-114 -41 -141 -16 -68 -47 -131 -141 -281 -44 -72 -84 -141 -87 -154 -8 -32
15 -48 84 -57 151 -19 349 63 423 174 33 50 33 54 14 178 -7 49 20 110 63 142
26 19 27 22 12 37 -16 16 -19 16 -53 0 -46 -22 -106 -91 -106 -123 0 -13 7
-30 15 -38 8 -9 15 -29 15 -45 0 -17 4 -39 10 -49 9 -17 2 -18 -89 -25 -55 -4
-112 -4 -128 -1 -32 7 -59 -6 -48 -23 5 -9 44 -12 127 -10 109 2 122 0 135
-17 19 -27 13 -45 -25 -71 -109 -73 -382 -102 -382 -40 0 8 25 52 56 98 73
108 160 291 169 352 3 26 15 73 25 103 54 157 50 464 -7 651 -9 29 -14 55 -12
58 3 2 19 -1 37 -7 37 -14 41 -11 52 38 12 51 -3 79 -18 35 -12 -35 -14 -36
-42 -19 -16 11 -22 9 -33 -7 -14 -18 -15 -18 -21 3 -4 12 -2 38 3 59 14 50 14
75 0 51 -45 -79 -80 106 -44 230 16 54 14 72 -9 72 -17 0 -86 151 -124 270
-33 106 -40 159 -51 385 -7 148 -20 206 -35 153z"/>
<path d="M1960 2590 c-16 -30 -40 -203 -30 -214 6 -6 30 -4 62 3 29 7 61 11
71 10 11 -3 22 5 30 20 20 39 37 38 30 -2 -7 -43 10 -55 31 -22 9 14 22 25 28
25 15 0 98 -69 98 -82 0 -5 -9 -22 -21 -36 -26 -34 -10 -40 42 -17 22 10 42
15 45 12 9 -9 -22 -54 -46 -67 -11 -6 -20 -15 -20 -21 0 -6 21 2 48 17 26 15
73 41 105 56 31 15 57 32 57 38 0 5 -1 10 -3 10 -2 0 -30 5 -62 11 -68 12
-100 27 -170 79 -27 21 -74 50 -103 65 -29 16 -79 52 -111 82 -33 29 -62 53
-65 53 -3 0 -10 -9 -16 -20z m43 -82 c5 -16 -10 -48 -23 -48 -11 0 -14 43 -3
53 10 11 21 8 26 -5z m52 -59 c-4 -5 -13 -9 -22 -9 -13 0 -13 3 -3 15 13 15
35 11 25 -6z"/>
<path d="M7307 2568 c23 -123 130 -365 218 -498 75 -111 224 -262 329 -331 98
-65 193 -106 209 -90 14 14 -1 31 -27 31 -49 0 -148 62 -243 153 -164 157
-301 359 -390 575 -58 141 -83 192 -94 192 -5 0 -6 -15 -2 -32z"/>
<path d="M7650 2020 c0 -32 139 -154 156 -137 4 3 -25 38 -63 76 -64 67 -93
85 -93 61z"/>
<path d="M7837 1854 c-9 -10 12 -34 30 -34 19 0 12 34 -8 38 -8 1 -18 0 -22
-4z"/>
<path d="M7583 1653 c9 -2 23 -2 30 0 6 3 -1 5 -18 5 -16 0 -22 -2 -12 -5z"/>
<path d="M7195 1629 c-107 -12 -255 -40 -255 -48 0 -4 28 -4 63 0 34 5 143 18
242 29 99 12 182 24 184 26 7 7 -159 2 -234 -7z"/>
<path d="M8635 1605 c-49 -7 -115 -14 -145 -14 -75 -2 -130 -12 -130 -24 0
-26 397 12 450 44 22 12 -66 9 -175 -6z"/>
<path d="M8160 1591 c18 -12 145 -35 162 -28 19 6 -57 27 -122 33 -39 4 -51 3
-40 -5z"/>
<path d="M9615 1575 c21 -17 45 -17 48 0 1 6 -14 11 -33 13 -33 2 -34 2 -15
-13z"/>
<path d="M6843 1563 c9 -2 25 -2 35 0 9 3 1 5 -18 5 -19 0 -27 -2 -17 -5z"/>
<path d="M9453 1563 c15 -2 39 -2 55 0 15 2 2 4 -28 4 -30 0 -43 -2 -27 -4z"/>
<path d="M7478 1543 c12 -2 30 -2 40 0 9 3 -1 5 -23 4 -22 0 -30 -2 -17 -4z"/>
<path d="M9273 1543 c9 -2 25 -2 35 0 9 3 1 5 -18 5 -19 0 -27 -2 -17 -5z"/>
<path d="M7260 1530 c-12 -8 -9 -10 13 -10 16 0 26 4 22 10 -8 12 -16 12 -35
0z"/>
<path d="M9130 1530 c-11 -7 -6 -10 20 -10 26 0 31 3 20 10 -8 5 -17 10 -20
10 -3 0 -12 -5 -20 -10z"/>
<path d="M9648 1529 c-19 -10 -24 -29 -9 -29 5 0 19 9 32 20 26 21 9 28 -23 9z"/>
<path d="M8560 1445 c-113 -19 -242 -45 -287 -59 -120 -37 -215 -54 -333 -61
-209 -12 -631 -73 -670 -96 -10 -6 -5 -7 15 -4 360 56 530 75 667 75 59 0 119
5 134 11 16 5 104 16 197 24 93 7 171 16 174 19 4 3 -8 6 -25 6 -18 0 -32 4
-32 10 0 15 114 46 260 70 74 12 142 26 150 31 27 15 -38 8 -250 -26z"/>
<path d="M9393 1473 c9 -2 25 -2 35 0 9 3 1 5 -18 5 -19 0 -27 -2 -17 -5z"/>
<path d="M9230 1460 c-11 -7 -6 -10 20 -10 26 0 31 3 20 10 -8 5 -17 10 -20
10 -3 0 -12 -5 -20 -10z"/>
<path d="M9016 1441 c-11 -4 -15 -10 -10 -14 12 -7 121 7 131 16 9 9 -97 7
-121 -2z"/>
<path d="M7770 1428 c-35 -5 -66 -11 -69 -13 -14 -15 19 -14 120 3 86 15 102
20 64 20 -27 0 -79 -5 -115 -10z"/>
<path d="M1770 1395 c-13 -14 -20 -28 -17 -32 8 -7 57 35 57 49 0 15 -16 8
-40 -17z"/>
<path d="M12133 1394 c-34 -15 -3 -22 105 -23 64 -1 135 -5 157 -11 50 -12
112 -13 100 -1 -21 18 -115 34 -230 37 -66 2 -126 1 -132 -2z"/>
<path d="M9163 1383 c9 -2 25 -2 35 0 9 3 1 5 -18 5 -19 0 -27 -2 -17 -5z"/>
<path d="M7485 1372 c-16 -1 -75 -12 -130 -23 -56 -12 -149 -22 -211 -24 -108
-3 -114 -4 -179 -40 -49 -28 -93 -43 -164 -56 -155 -28 -345 -70 -351 -76 -10
-11 137 7 245 31 61 13 132 27 158 31 26 3 78 23 115 42 63 34 75 37 187 44
155 9 389 55 365 71 -3 2 -18 2 -35 0z"/>
<path d="M9723 1353 c9 -2 25 -2 35 0 9 3 1 5 -18 5 -19 0 -27 -2 -17 -5z"/>
<path d="M9923 1353 c9 -2 23 -2 30 0 6 3 -1 5 -18 5 -16 0 -22 -2 -12 -5z"/>
<path d="M1848 1324 c-31 -16 -37 -34 -13 -34 22 0 75 29 75 40 0 14 -31 11
-62 -6z"/>
<path d="M9410 1329 c-19 -4 -70 -11 -113 -14 -43 -2 -108 -14 -145 -26 -54
-17 -106 -23 -277 -29 -157 -6 -245 -15 -350 -35 -76 -14 -141 -28 -144 -30
-10 -10 70 -4 189 15 90 14 175 20 304 20 171 0 183 1 273 30 107 34 143 39
123 15 -16 -19 -11 -19 80 5 41 11 101 22 133 26 36 4 56 11 54 18 -5 14 -81
17 -127 5z"/>
<path d="M12135 1315 c-38 -13 -87 -24 -107 -24 -36 -1 -95 -18 -87 -26 5 -5
287 31 330 43 18 4 34 13 37 20 6 20 -96 12 -173 -13z"/>
<path d="M6720 1273 c-83 -8 -248 -34 -283 -44 -74 -20 -28 -21 100 0 70 11
181 23 246 27 64 3 117 10 117 15 0 9 -106 10 -180 2z"/>
<path d="M7794 1185 c-16 -12 -17 -14 -2 -15 23 0 48 11 48 21 0 14 -24 11
-46 -6z"/>
<path d="M4683 1164 c24 -13 30 -13 55 0 27 15 26 15 -28 15 -54 0 -55 0 -27
-15z"/>
<path d="M8210 1168 c-114 -24 -324 -80 -339 -89 -13 -8 -11 -9 9 -4 14 3 68
8 120 11 52 3 110 7 129 10 31 5 32 6 15 19 -18 13 -18 14 6 20 14 3 59 14
100 24 55 14 66 19 40 19 -19 0 -55 -4 -80 -10z"/>
<path d="M7560 1149 c-30 -5 -95 -12 -145 -15 -50 -4 -99 -13 -110 -20 -11 -8
-28 -14 -39 -14 -44 0 2 -20 59 -25 46 -5 56 -4 43 5 -48 30 -3 36 108 14 26
-5 32 -2 37 17 6 21 9 22 89 16 83 -7 117 1 104 22 -8 12 -65 12 -146 0z"/>
<path d="M4408 1143 c12 -2 32 -2 45 0 12 2 2 4 -23 4 -25 0 -35 -2 -22 -4z"/>
<path d="M8625 1140 c-14 -6 2 -9 50 -9 39 0 79 4 90 9 14 6 -2 9 -50 9 -38 0
-79 -4 -90 -9z"/>
<path d="M4229 1110 c27 -23 56 -23 56 0 0 10 -12 16 -40 18 l-40 2 24 -20z"/>
<path d="M4025 1100 c-7 -12 45 -12 90 0 25 6 20 8 -27 9 -31 0 -60 -3 -63 -9z"/>
<path d="M5174 1095 c-18 -13 -17 -14 18 -15 41 0 68 8 68 21 0 15 -65 10 -86
-6z"/>
<path d="M8328 1092 c-27 -9 -48 -19 -48 -23 0 -8 87 15 98 25 12 13 -5 12
-50 -2z"/>
<path d="M6635 1090 c-16 -25 39 -45 106 -38 l34 4 -45 22 c-49 23 -85 28 -95
12z"/>
<path d="M3783 1053 c9 -2 23 -2 30 0 6 3 -1 5 -18 5 -16 0 -22 -2 -12 -5z"/>
<path d="M7160 1044 c0 -9 7 -14 17 -12 25 5 28 28 4 28 -12 0 -21 -6 -21 -16z"/>
<path d="M8155 1053 c-41 -10 -41 -26 0 -18 51 9 81 25 45 24 -14 -1 -34 -3
-45 -6z"/>
<path d="M5222 1036 c-29 -8 -55 -16 -59 -20 -19 -19 140 6 162 25 13 13 -40
10 -103 -5z"/>
<path d="M9538 1036 c-31 -7 -75 -25 -97 -40 -34 -24 -56 -30 -131 -37 -50 -5
-108 -14 -130 -20 -30 -9 -60 -9 -129 0 -92 13 -151 8 -151 -11 0 -8 74 -9
243 -6 259 6 271 8 347 64 32 23 41 25 96 19 43 -4 64 -3 69 5 18 29 -40 42
-117 26z"/>
<path d="M6960 1033 c-44 -8 -47 -23 -4 -23 47 0 75 14 49 24 -9 3 -17 5 -18
5 -1 -1 -13 -4 -27 -6z"/>
<path d="M8563 1033 c9 -2 25 -2 35 0 9 3 1 5 -18 5 -19 0 -27 -2 -17 -5z"/>
<path d="M3590 984 c-14 -2 -58 -9 -99 -15 -85 -13 -163 -37 -121 -38 28 -1
312 48 319 55 5 5 -61 3 -99 -2z"/>
<path d="M6703 975 c-39 -7 -93 -20 -120 -29 -58 -19 -140 -32 -293 -47 -71
-7 -141 -20 -185 -36 -90 -32 -246 -84 -358 -118 -86 -27 -133 -54 -67 -40 29
6 31 5 25 -14 -6 -19 -3 -21 42 -21 26 1 62 7 78 15 30 13 30 13 -25 15 l-55
1 50 21 c28 11 129 49 225 85 156 57 187 65 285 74 198 17 258 27 374 63 155
48 161 56 24 31z"/>
<path d="M7390 963 c-94 -5 -213 -24 -250 -40 -19 -8 -80 -19 -134 -24 -114
-11 -254 -39 -373 -75 -94 -28 -113 -49 -25 -29 31 8 114 28 184 44 133 32
196 38 229 21 15 -8 34 -4 87 19 84 36 140 47 317 61 170 14 228 29 105 27
-47 0 -110 -2 -140 -4z"/>
<path d="M4289 949 c-10 -6 -7 -9 14 -9 29 0 35 5 14 13 -8 3 -20 1 -28 -4z"/>
<path d="M8529 930 c-27 -16 -133 -28 -176 -21 -57 11 -139 -2 -274 -43 -137
-42 -178 -57 -163 -62 6 -3 80 13 165 35 203 51 213 53 235 36 35 -26 122 -16
318 36 29 8 36 13 25 20 -18 11 -109 11 -130 -1z"/>
<path d="M4903 913 c15 -2 37 -2 50 0 12 2 0 4 -28 4 -27 0 -38 -2 -22 -4z"/>
<path d="M4700 890 c-25 -15 -7 -17 40 -4 l45 12 -35 1 c-19 0 -42 -3 -50 -9z"/>
<path d="M8708 858 c9 -9 15 -9 24 0 9 9 7 12 -12 12 -19 0 -21 -3 -12 -12z"/>
<path d="M8575 834 l-40 -14 44 4 c24 3 48 9 54 15 15 15 -7 13 -58 -5z"/>
<path d="M4110 790 c-11 -7 -5 -10 23 -10 23 0 36 4 32 10 -8 13 -35 13 -55 0z"/>
<path d="M6141 759 c-100 -19 -177 -56 -158 -75 3 -3 54 10 114 30 93 31 121
36 203 36 65 0 90 3 80 10 -18 12 -178 11 -239 -1z"/>
<path d="M4142 735 c-24 -14 -57 -34 -74 -46 -16 -12 -51 -30 -76 -41 l-47
-19 39 5 c21 3 55 14 75 24 20 11 58 31 85 46 32 17 65 26 95 26 51 1 41 13
-19 24 -27 4 -45 0 -78 -19z"/>
<path d="M4773 713 c-24 -2 -43 -8 -43 -13 0 -11 148 -1 170 11 15 9 -43 9
-127 2z"/>
<path d="M6130 701 c-13 -9 -12 -11 1 -16 25 -9 149 -1 152 10 3 13 -133 18
-153 6z"/>
<path d="M4605 685 c-95 -21 -175 -46 -175 -55 0 -4 28 -2 63 6 82 19 197 53
197 59 0 7 -17 5 -85 -10z"/>
<path d="M4830 658 c-65 -18 -60 -31 10 -24 59 6 63 5 46 -9 -11 -8 -23 -15
-28 -15 -4 0 -8 -4 -8 -10 0 -6 29 -10 68 -10 57 1 64 3 50 14 -15 11 -16 15
-3 33 8 11 11 23 8 27 -9 9 -103 6 -143 -6z"/>
<path d="M3808 633 c12 -2 32 -2 45 0 12 2 2 4 -23 4 -25 0 -35 -2 -22 -4z"/>
<path d="M3610 613 c-32 -6 -51 -23 -24 -22 10 0 42 7 69 14 46 12 47 13 15
12 -19 0 -46 -2 -60 -4z"/>
<path d="M2610 575 c-10 -12 -9 -16 4 -21 22 -8 46 2 46 21 0 19 -34 20 -50 0z"/>
<path d="M2058 424 c-27 -8 -48 -19 -48 -24 0 -10 74 10 106 28 27 16 0 14
-58 -4z"/>
<path d="M1620 416 c-14 -8 -45 -17 -70 -21 -25 -4 -94 -23 -155 -42 -60 -19
-129 -37 -152 -40 -53 -7 -56 -23 -5 -23 41 0 194 36 227 53 11 5 35 10 55 9
37 -1 130 43 138 66 5 15 -6 15 -38 -2z"/>
<path d="M1850 412 c0 -15 24 -32 44 -32 18 0 19 1 1 20 -18 20 -45 27 -45 12z"/>
<path d="M1025 269 c-44 -11 -108 -21 -142 -23 -34 -1 -65 -5 -68 -8 -12 -12
38 -20 83 -13 63 9 213 45 232 56 26 14 -17 9 -105 -12z"/>
</g>
</svg>
